<?xml version="1.0" encoding="utf-8"?>
<!-- Generator: Adobe Illustrator 16.0.3, SVG Export Plug-In . SVG Version: 6.00 Build 0)  -->
<!DOCTYPE svg PUBLIC "-//W3C//DTD SVG 1.1//EN" "http://www.w3.org/Graphics/SVG/1.1/DTD/svg11.dtd">
<svg version="1.1" id="Layer_1" xmlns="http://www.w3.org/2000/svg" xmlns:xlink="http://www.w3.org/1999/xlink" x="0px" y="0px"
	 width="128px" height="128px" viewBox="0 0 128 128" enable-background="new 0 0 128 128" xml:space="preserve">
<g>
	<path d="M64.002,128C28.71,128,0,99.289,0,64C0,28.71,28.71,0,64.002,0C99.287,0,128,28.71,128,64
		C128,99.289,99.287,128,64.002,128z M64.002,5.336C31.653,5.336,5.339,31.651,5.339,64c0,32.349,26.313,58.664,58.663,58.664
		c32.343,0,58.66-26.315,58.66-58.664C122.662,31.651,96.345,5.336,64.002,5.336z"/>
</g>
<g>
	<polygon points="42.058,34.97 66.679,34.97 95.711,64.225 66.679,93.03 42.058,93.03 70.11,64.227 	"/>
</g>
</svg>
