<?xml version="1.0" encoding="utf-8"?>
<!-- Generator: Adobe Illustrator 16.0.3, SVG Export Plug-In . SVG Version: 6.00 Build 0)  -->
<!DOCTYPE svg PUBLIC "-//W3C//DTD SVG 1.1//EN" "http://www.w3.org/Graphics/SVG/1.1/DTD/svg11.dtd">
<svg version="1.1" id="Layer_1" xmlns="http://www.w3.org/2000/svg" xmlns:xlink="http://www.w3.org/1999/xlink" x="0px" y="0px"
	 width="128px" height="128px" viewBox="0 0 128 128" enable-background="new 0 0 128 128" xml:space="preserve">
<g>
	<path d="M63.998,0C99.29,0,128,28.711,128,64c0,35.29-28.71,64-64.002,64C28.713,128,0,99.29,0,64C0,28.711,28.713,0,63.998,0z
		 M63.998,122.664c32.349,0,58.662-26.314,58.662-58.664c0-32.349-26.313-58.664-58.662-58.664C31.655,5.336,5.338,31.651,5.338,64
		C5.338,96.35,31.655,122.664,63.998,122.664z"/>
</g>
<g>
	<polygon points="85.942,93.03 61.321,93.03 32.289,63.775 61.321,34.97 85.942,34.97 57.89,63.773 	"/>
</g>
</svg>
