<?xml version="1.0" encoding="utf-8"?>
<!-- Generator: Adobe Illustrator 16.0.3, SVG Export Plug-In . SVG Version: 6.00 Build 0)  -->
<!DOCTYPE svg PUBLIC "-//W3C//DTD SVG 1.1//EN" "http://www.w3.org/Graphics/SVG/1.1/DTD/svg11.dtd">
<svg version="1.1" id="Layer_1" xmlns="http://www.w3.org/2000/svg" xmlns:xlink="http://www.w3.org/1999/xlink" x="0px" y="0px"
	 width="450px" height="102px" viewBox="3 2 450 102" enable-background="new 3 2 450 102" xml:space="preserve">
<g>
	<linearGradient id="SVGID_1_" gradientUnits="userSpaceOnUse" x1="227.9995" y1="2" x2="227.9995" y2="104.0005">
		<stop  offset="0" style="stop-color:#ED1555"/>
		<stop  offset="1" style="stop-color:#9C2242"/>
	</linearGradient>
	<polygon fill="url(#SVGID_1_)" points="433.622,104 3,104 3,2 453,2 453,84.493 	"/>
</g>
<rect x="3" y="2" fill="#ED648D" width="450" height="1.488"/>
<g display="none" opacity="0.35">
	<path display="inline" d="M79.115,136.178v9.709c0,2.426-0.859,4.495-2.58,6.217c-1.722,1.722-3.793,2.582-6.215,2.582H44.911
		c-2.423,0-4.495-0.86-6.215-2.582c-1.72-1.722-2.581-3.791-2.581-6.217V120.48c0-2.424,0.861-4.496,2.581-6.215
		c1.72-1.723,3.792-2.582,6.215-2.582H70.32c1.282,0,2.473,0.256,3.572,0.764c0.306,0.143,0.488,0.377,0.55,0.701
		c0.062,0.348-0.03,0.644-0.274,0.888l-1.496,1.495c-0.205,0.203-0.438,0.307-0.703,0.307c-0.062,0-0.152-0.02-0.275-0.061
		c-0.467-0.123-0.924-0.184-1.373-0.184h-25.41c-1.344,0-2.494,0.477-3.452,1.436c-0.956,0.957-1.434,2.107-1.434,3.451v25.406
		c0,1.344,0.479,2.494,1.434,3.452c0.958,0.957,2.108,1.435,3.452,1.435H70.32c1.344,0,2.493-0.478,3.45-1.435
		c0.957-0.958,1.436-2.108,1.436-3.452v-7.757c0-0.264,0.091-0.487,0.274-0.672l1.955-1.954c0.204-0.203,0.438-0.305,0.703-0.305
		c0.122,0,0.244,0.031,0.367,0.091C78.912,135.455,79.115,135.75,79.115,136.178z M86.168,121.243L61.31,146.102
		c-0.489,0.489-1.067,0.734-1.74,0.734c-0.672,0-1.252-0.245-1.741-0.734l-13.132-13.131c-0.488-0.488-0.732-1.068-0.732-1.74
		s0.244-1.252,0.732-1.742l3.359-3.358c0.489-0.487,1.069-0.733,1.741-0.733s1.252,0.244,1.74,0.733l8.034,8.032l19.159-19.76
		c0.489-0.487,1.069-0.733,1.741-0.733c0.672,0,1.252,0.246,1.741,0.733l3.958,3.359c0.489,0.488,0.734,1.067,0.734,1.74
		C86.903,120.174,86.658,120.755,86.168,121.243z"/>
</g>
<g>
	<g opacity="0.35">
		<path d="M76.304,33.266c-1.72-1.723-3.792-2.582-6.215-2.582H57.5H44.911c-2.423,0-4.495,0.859-6.215,2.582
			c-1.72,1.719-2.581,3.791-2.581,6.215v25.406c0,2.426,0.861,4.496,2.581,6.217c1.72,1.723,3.792,2.582,6.215,2.582H57.5h12.589
			c2.423,0,4.495-0.859,6.215-2.582c1.72-1.721,2.581-3.791,2.581-6.217V39.481C78.885,37.057,78.024,34.985,76.304,33.266z
			 M74.975,64.887c0,1.344-0.479,2.494-1.434,3.453c-0.958,0.957-2.108,1.434-3.452,1.434H57.5H44.911
			c-1.344,0-2.494-0.477-3.452-1.434c-0.955-0.959-1.434-2.109-1.434-3.453V39.481c0-1.344,0.478-2.494,1.434-3.451
			c0.958-0.959,2.108-1.436,3.452-1.436H57.5h12.589c1.344,0,2.494,0.477,3.452,1.436c0.956,0.957,1.434,2.107,1.434,3.451V64.887z"
			/>
	</g>
	<g>
		<linearGradient id="SVGID_2_" gradientUnits="userSpaceOnUse" x1="57.5" y1="29.6841" x2="57.5" y2="72.686">
			<stop  offset="0" style="stop-color:#FFFFFF"/>
			<stop  offset="1" style="stop-color:#D1D3D4"/>
		</linearGradient>
		<path fill="url(#SVGID_2_)" d="M76.304,32.266c-1.72-1.723-3.792-2.582-6.215-2.582H57.5H44.911c-2.423,0-4.495,0.859-6.215,2.582
			c-1.72,1.719-2.581,3.791-2.581,6.215v25.406c0,2.426,0.861,4.496,2.581,6.217c1.72,1.723,3.792,2.582,6.215,2.582H57.5h12.589
			c2.423,0,4.495-0.859,6.215-2.582c1.72-1.721,2.581-3.791,2.581-6.217V38.481C78.885,36.057,78.024,33.985,76.304,32.266z
			 M74.975,63.887c0,1.344-0.479,2.494-1.434,3.453c-0.958,0.957-2.108,1.434-3.452,1.434H57.5H44.911
			c-1.344,0-2.494-0.477-3.452-1.434c-0.955-0.959-1.434-2.109-1.434-3.453V38.481c0-1.344,0.478-2.494,1.434-3.451
			c0.958-0.959,2.108-1.436,3.452-1.436H57.5h12.589c1.344,0,2.494,0.477,3.452,1.436c0.956,0.957,1.434,2.107,1.434,3.451V63.887z"
			/>
	</g>
</g>
</svg>
