<?xml version="1.0" encoding="utf-8"?>
<!-- Generator: Adobe Illustrator 16.0.3, SVG Export Plug-In . SVG Version: 6.00 Build 0)  -->
<!DOCTYPE svg PUBLIC "-//W3C//DTD SVG 1.1//EN" "http://www.w3.org/Graphics/SVG/1.1/DTD/svg11.dtd">
<svg version="1.1" id="Layer_1" xmlns="http://www.w3.org/2000/svg" xmlns:xlink="http://www.w3.org/1999/xlink" x="0px" y="0px"
	 width="453px" height="102px" viewBox="2.5 3 453 102" enable-background="new 2.5 3 453 102" xml:space="preserve">
<g>
	<polygon fill="#ED1555" points="436.002,105 2.5,105 2.5,3 455.5,3 455.5,85.502 	"/>
</g>
<rect x="2.5" y="3" fill="#ED648D" width="453" height="1"/>
<g display="none" opacity="0.35">
	<path display="inline" d="M30.5,31v45.999h61V31H30.5z M34.938,69.313V39.337l14.78,14.842L34.938,69.313z M61.104,58.27
		c-0.279,0.279-0.76,0.272-1.032,0.004L37.36,35.46h46.377L61.104,58.27z M56.936,61.425c0.976,0.979,2.273,1.521,3.656,1.521
		c1.381-0.002,2.679-0.543,3.652-1.526l5.058-5.097l14.868,16.22H38.011L52.86,57.334L56.936,61.425z M72.442,53.164l14.619-14.729
		v30.67L72.442,53.164z"/>
</g>
<g display="none">
	<g display="inline" opacity="0.35">
		<path d="M63.005,13.79c-0.984-0.983-3.255-0.986-3.255-0.986s-2.271,0.003-3.255,0.986C50.902,19.381,29.25,41.5,29.25,41.5v46h61
			v-46C90.25,41.5,68.598,19.381,63.005,13.79z M59.75,17.25L84,41.5H35.5L59.75,17.25z M82.25,46.5L67.28,61.47l-7.86-7.68
			l-7.44,7.44L37.25,46.5H82.25z M34.25,49.934c2.737,2.783,8.987,9.136,14.41,14.626L34.25,78.97V49.934z M37.78,82.5l21.67-21.67
			L81.643,82.5H37.78z M85.25,79.04L70.64,64.76c5.471-5.539,11.84-12.011,14.61-14.826V79.04z"/>
	</g>
	<g display="inline">
		<linearGradient id="SVGID_1_" gradientUnits="userSpaceOnUse" x1="59.75" y1="11.8037" x2="59.75" y2="86.5005">
			<stop  offset="0" style="stop-color:#FFFFFF"/>
			<stop  offset="1" style="stop-color:#D1D3D4"/>
		</linearGradient>
		<path fill="url(#SVGID_1_)" d="M63.005,12.79c-0.984-0.983-3.255-0.986-3.255-0.986s-2.271,0.003-3.255,0.986
			C50.902,18.381,29.25,40.5,29.25,40.5v46h61v-46C90.25,40.5,68.598,18.381,63.005,12.79z M59.75,16.25L84,40.5H35.5L59.75,16.25z
			 M82.25,45.5L67.28,60.47l-7.86-7.68l-7.44,7.44L37.25,45.5H82.25z M34.25,48.934c2.737,2.783,8.987,9.136,14.41,14.626
			L34.25,77.97V48.934z M37.78,81.5l21.67-21.67L81.643,81.5H37.78z M85.25,78.04L70.64,63.76
			c5.471-5.539,11.84-12.011,14.61-14.826V78.04z"/>
	</g>
</g>
<g>
	<g opacity="0.35">
		<path d="M29.25,41.5v46h61v-46H29.25z M82.25,46.5L67.28,61.47l-3.54,3.54L59.75,69l-4.23-4.23l-3.54-3.539L37.25,46.5H82.25z
			 M34.25,49.93c0.09,0.09,13.73,13.931,14.42,14.63L34.25,78.97V49.93z M37.78,82.5l14.4-14.39c1.75,1.77,3.26,3.29,4.32,4.35
			c0.98,0.98,3.25,0.99,3.25,0.99s2.28-0.01,3.26-0.99c1.02-1.02,2.45-2.46,4.12-4.14L81.65,82.5H37.78z M85.25,79.04l-14.6-14.28
			c0.34-0.35,14.59-14.819,14.6-14.819V79.04z"/>
	</g>
	<g>
		<linearGradient id="SVGID_2_" gradientUnits="userSpaceOnUse" x1="59.75" y1="40.5" x2="59.75" y2="86.5005">
			<stop  offset="0" style="stop-color:#FFFFFF"/>
			<stop  offset="1" style="stop-color:#D1D3D4"/>
		</linearGradient>
		<path fill="url(#SVGID_2_)" d="M29.25,40.5v46h61v-46H29.25z M82.25,45.5L67.28,60.47l-3.54,3.54L59.75,68l-4.23-4.23l-3.54-3.539
			L37.25,45.5H82.25z M34.25,48.93c0.09,0.09,13.73,13.931,14.42,14.63L34.25,77.97V48.93z M37.78,81.5l14.4-14.39
			c1.75,1.77,3.26,3.29,4.32,4.35c0.98,0.98,3.25,0.99,3.25,0.99s2.28-0.01,3.26-0.99c1.02-1.02,2.45-2.46,4.12-4.14L81.65,81.5
			H37.78z M85.25,78.04l-14.6-14.28c0.34-0.35,14.59-14.819,14.6-14.819V78.04z"/>
	</g>
</g>
</svg>
