<?xml version="1.0" encoding="utf-8"?>
<!-- Generator: Adobe Illustrator 16.0.3, SVG Export Plug-In . SVG Version: 6.00 Build 0)  -->
<!DOCTYPE svg PUBLIC "-//W3C//DTD SVG 1.1//EN" "http://www.w3.org/Graphics/SVG/1.1/DTD/svg11.dtd">
<svg version="1.1" id="Layer_1" xmlns="http://www.w3.org/2000/svg" xmlns:xlink="http://www.w3.org/1999/xlink" x="0px" y="0px"
	 width="450px" height="102px" viewBox="3 2 450 102" enable-background="new 3 2 450 102" xml:space="preserve">
<g>
	<polygon fill="#ED1555" points="433.622,104 3,104 3,2 453,2 453,84.493 	"/>
</g>
<rect x="3" y="2" fill="#ED648D" width="450" height="1.488"/>
<g>
	<g opacity="0.35">
		<path d="M79.115,55.178v9.709c0,2.426-0.859,4.495-2.58,6.217c-1.722,1.722-3.793,2.582-6.215,2.582H44.911
			c-2.423,0-4.495-0.86-6.215-2.582c-1.72-1.722-2.581-3.791-2.581-6.217V39.48c0-2.423,0.861-4.495,2.581-6.215
			c1.72-1.722,3.792-2.581,6.215-2.581H70.32c1.282,0,2.473,0.255,3.572,0.764c0.306,0.142,0.488,0.376,0.55,0.701
			c0.062,0.347-0.03,0.643-0.274,0.887l-1.496,1.496c-0.205,0.203-0.438,0.306-0.703,0.306c-0.062,0-0.152-0.02-0.275-0.061
			c-0.467-0.123-0.924-0.183-1.373-0.183h-25.41c-1.344,0-2.494,0.477-3.452,1.435c-0.956,0.957-1.434,2.108-1.434,3.451v25.407
			c0,1.344,0.479,2.494,1.434,3.452c0.958,0.957,2.108,1.435,3.452,1.435H70.32c1.344,0,2.493-0.478,3.45-1.435
			c0.957-0.958,1.436-2.108,1.436-3.452V57.13c0-0.264,0.091-0.487,0.274-0.672l1.955-1.954c0.204-0.203,0.438-0.305,0.703-0.305
			c0.122,0,0.244,0.031,0.367,0.091C78.912,54.455,79.115,54.75,79.115,55.178z M86.168,40.243L61.31,65.102
			c-0.489,0.489-1.067,0.734-1.74,0.734c-0.672,0-1.252-0.245-1.741-0.734L44.697,51.97c-0.488-0.488-0.732-1.068-0.732-1.74
			s0.244-1.252,0.732-1.741l3.359-3.359c0.489-0.488,1.069-0.733,1.741-0.733s1.252,0.244,1.74,0.733l8.034,8.032L78.73,33.403
			c0.489-0.488,1.069-0.734,1.741-0.734c0.672,0,1.252,0.246,1.741,0.734l3.958,3.359c0.489,0.488,0.734,1.067,0.734,1.74
			C86.903,39.174,86.658,39.755,86.168,40.243z"/>
	</g>
	<g>
		<g>
			
				<linearGradient id="SVGID_1_" gradientUnits="userSpaceOnUse" x1="-157.4995" y1="181.7168" x2="-157.4995" y2="138.7148" gradientTransform="matrix(1 0 0 -1 219.0098 211.4004)">
				<stop  offset="0" style="stop-color:#FFFFFF"/>
				<stop  offset="1" style="stop-color:#D1D3D4"/>
			</linearGradient>
			<path fill="url(#SVGID_1_)" d="M79.115,54.177v9.709c0,2.426-0.859,4.495-2.58,6.217c-1.722,1.722-3.793,2.582-6.215,2.582
				H44.911c-2.423,0-4.495-0.86-6.215-2.582c-1.72-1.722-2.581-3.791-2.581-6.217V38.48c0-2.423,0.861-4.495,2.581-6.215
				c1.72-1.722,3.792-2.581,6.215-2.581H70.32c1.282,0,2.473,0.255,3.572,0.764c0.306,0.142,0.488,0.376,0.55,0.701
				c0.062,0.347-0.03,0.643-0.274,0.887l-1.496,1.496c-0.205,0.203-0.438,0.306-0.703,0.306c-0.062,0-0.152-0.02-0.275-0.061
				c-0.467-0.123-0.924-0.183-1.373-0.183h-25.41c-1.344,0-2.494,0.477-3.452,1.435c-0.956,0.957-1.434,2.108-1.434,3.451v25.407
				c0,1.344,0.479,2.494,1.434,3.452c0.958,0.957,2.108,1.435,3.452,1.435H70.32c1.344,0,2.493-0.478,3.45-1.435
				c0.957-0.958,1.436-2.108,1.436-3.452V56.13c0-0.264,0.091-0.487,0.274-0.672l1.955-1.954c0.204-0.203,0.438-0.305,0.703-0.305
				c0.122,0,0.244,0.031,0.367,0.091C78.912,53.455,79.115,53.75,79.115,54.177z M86.168,39.243L61.31,64.102
				c-0.489,0.489-1.067,0.734-1.74,0.734c-0.672,0-1.252-0.245-1.741-0.734L44.697,50.97c-0.488-0.488-0.732-1.068-0.732-1.74
				s0.244-1.252,0.732-1.741l3.359-3.359c0.489-0.488,1.069-0.733,1.741-0.733s1.252,0.244,1.74,0.733l8.034,8.032L78.73,32.403
				c0.489-0.488,1.069-0.734,1.741-0.734c0.672,0,1.252,0.246,1.741,0.734l3.958,3.359c0.489,0.488,0.734,1.067,0.734,1.74
				C86.903,38.174,86.658,38.755,86.168,39.243z"/>
		</g>
	</g>
</g>
</svg>
