<?xml version="1.0" encoding="utf-8"?>
<!-- Generator: Adobe Illustrator 16.0.3, SVG Export Plug-In . SVG Version: 6.00 Build 0)  -->
<!DOCTYPE svg PUBLIC "-//W3C//DTD SVG 1.1//EN" "http://www.w3.org/Graphics/SVG/1.1/DTD/svg11.dtd">
<svg version="1.1" id="Layer_1" xmlns="http://www.w3.org/2000/svg" xmlns:xlink="http://www.w3.org/1999/xlink" x="0px" y="0px"
	 width="168px" height="168px" viewBox="0 0 168 168" enable-background="new 0 0 168 168" xml:space="preserve">
<g>
	<rect x="88.106" y="48" fill="#ED1555" width="8" height="8"/>
	<rect x="96.106" y="48" fill="#2A3A4B" width="8" height="8"/>
	<rect x="104.106" y="48" fill="#ED1555" width="8" height="8"/>
	<rect x="112.106" y="48" fill="#ED1555" width="8" height="8"/>
	<rect x="120.106" y="48" fill="#ED1555" width="8" height="8"/>
	<rect x="128" y="48" fill="#2A3A4B" width="8" height="8"/>
	<rect x="88.106" y="72" fill="#ED1555" width="8" height="8"/>
	<rect x="96.106" y="72" fill="#ED1555" width="8" height="8"/>
	<rect x="104.106" y="72" fill="#ED1555" width="8" height="8"/>
	<rect x="112.106" y="72" fill="#ED1555" width="8" height="8"/>
	<rect x="120" y="72" fill="#2A3A4B" width="8" height="8"/>
	<rect x="96" y="80" fill="#ED1555" width="8" height="8"/>
	<rect x="104.106" y="80" fill="#ED1555" width="8" height="8"/>
	<rect x="112.11" y="80" fill="#ED1555" width="8" height="8"/>
	<rect x="120.103" y="80" fill="#ED1555" width="8.004" height="8"/>
	<rect x="88.106" y="64" fill="#ED1555" width="8" height="8"/>
	<rect x="96.106" y="64" fill="#ED1555" width="8" height="8"/>
	<rect x="104.106" y="64" fill="#ED1555" width="8" height="8"/>
	<rect x="112" y="64" fill="#2A3A4B" width="8" height="8"/>
	<rect x="88.106" y="56" fill="#ED1555" width="8" height="8"/>
	<rect x="96.106" y="56" fill="#ED1555" width="8" height="8"/>
	<rect x="104.106" y="56" fill="#ED1555" width="8" height="8"/>
	<rect x="112.106" y="56" fill="#ED1555" width="8" height="8"/>
	<rect x="120" y="56" fill="#2A3A4B" width="8" height="8"/>
	<rect x="88" y="40" fill="#2A3A4B" width="8" height="8"/>
	<rect x="104.106" y="40" fill="#2A3A4B" width="8" height="8"/>
	<rect x="112.106" y="40" fill="#ED1555" width="8" height="8"/>
	<rect x="120" y="40" fill="#2A3A4B" width="8" height="8"/>
	<rect x="112" y="32" fill="#2A3A4B" width="8" height="8"/>
	<rect x="88" y="24" fill="#2A3A4B" width="8" height="8"/>
	<rect x="88.106" y="16" fill="#ED1555" width="8" height="8"/>
	<rect x="96" y="16" fill="#2A3A4B" width="8" height="8"/>
	<rect x="88" y="8" fill="#2A3A4B" width="8" height="8"/>
	<rect x="88.106" y="112" fill="#ED1555" width="8" height="8"/>
	<rect x="96.106" y="112" fill="#2A3A4B" width="8" height="8"/>
	<rect x="104.106" y="112" fill="#ED1555" width="8" height="8"/>
	<rect x="112.106" y="112" fill="#ED1555" width="8" height="8"/>
	<rect x="120.106" y="112" fill="#ED1555" width="8" height="8"/>
	<rect x="128" y="112" fill="#2A3A4B" width="8" height="8"/>
	<rect x="88.106" y="88" fill="#ED1555" width="8" height="8"/>
	<rect x="96.106" y="88" fill="#ED1555" width="8" height="8"/>
	<rect x="104.106" y="88" fill="#ED1555" width="8" height="8"/>
	<rect x="112.106" y="88" fill="#ED1555" width="8" height="8"/>
	<rect x="120" y="88" fill="#2A3A4B" width="8" height="8"/>
	<rect x="88.106" y="96" fill="#ED1555" width="8" height="8"/>
	<rect x="96.106" y="96" fill="#ED1555" width="8" height="8"/>
	<rect x="104.106" y="96" fill="#ED1555" width="8" height="8"/>
	<rect x="112" y="96" fill="#2A3A4B" width="8" height="8"/>
	<rect x="88.106" y="104" fill="#ED1555" width="8" height="8"/>
	<rect x="96.106" y="104" fill="#ED1555" width="8" height="8"/>
	<rect x="104.106" y="104" fill="#ED1555" width="8" height="8"/>
	<rect x="112.106" y="104" fill="#ED1555" width="8" height="8"/>
	<rect x="120" y="104" fill="#2A3A4B" width="8" height="8"/>
	<rect x="88" y="120" fill="#2A3A4B" width="8" height="8"/>
	<rect x="104.106" y="120" fill="#2A3A4B" width="8" height="8"/>
	<rect x="112.106" y="120" fill="#ED1555" width="8" height="8"/>
	<rect x="120" y="120" fill="#2A3A4B" width="8" height="8"/>
	<rect x="112" y="128" fill="#2A3A4B" width="8" height="8"/>
	<rect x="88" y="136" fill="#2A3A4B" width="8" height="8"/>
	<rect x="88.106" y="144" fill="#ED1555" width="8" height="8"/>
	<rect x="96" y="144" fill="#2A3A4B" width="8" height="8"/>
	<rect x="88" y="152" fill="#2A3A4B" width="8" height="8"/>
	<rect x="152" y="72" fill="#2A3A4B" width="8" height="8"/>
	<rect x="152.106" y="80" fill="#ED1555" width="8" height="8"/>
	<rect x="160" y="80" fill="#2A3A4B" width="8" height="8"/>
	<rect x="152" y="88" fill="#2A3A4B" width="8" height="8"/>
	<rect x="144" y="64" fill="#2A3A4B" width="8" height="8"/>
	<rect x="144.106" y="72" fill="#ED1555" width="8" height="8"/>
	<rect x="144.106" y="80" fill="#ED1555" width="8" height="8"/>
	<rect x="144.106" y="88" fill="#ED1555" width="8" height="8"/>
	<rect x="144" y="96" fill="#2A3A4B" width="8" height="8"/>
	<rect x="136" y="72" fill="#2A3A4B" width="8" height="8"/>
	<rect x="136.106" y="80" fill="#ED1555" width="8" height="8"/>
	<rect x="128" y="80" fill="#2A3A4B" width="8" height="8"/>
	<rect x="136" y="88" fill="#2A3A4B" width="8" height="8"/>
	<rect x="72" y="48" fill="#ED1555" width="8" height="8"/>
	<rect x="64" y="48" fill="#2A3A4B" width="8" height="8"/>
	<rect x="56" y="48" fill="#ED1555" width="8" height="8"/>
	<rect x="48" y="48" fill="#ED1555" width="8" height="8"/>
	<rect x="40" y="48" fill="#ED1555" width="8" height="8"/>
	<rect x="32" y="48" fill="#2A3A4B" width="8" height="8"/>
	<rect x="72" y="72" fill="#ED1555" width="8" height="8"/>
	<rect x="64" y="72" fill="#ED1555" width="8" height="8"/>
	<rect x="56" y="72" fill="#ED1555" width="8" height="8"/>
	<rect x="48" y="72" fill="#ED1555" width="8" height="8"/>
	<rect x="40" y="72" fill="#2A3A4B" width="8" height="8"/>
	<rect x="64.004" y="80" fill="#ED1555" width="7.996" height="8"/>
	<rect x="56" y="80" fill="#ED1555" width="8" height="8"/>
	<rect x="47.996" y="80" fill="#ED1555" width="8" height="8"/>
	<rect x="40" y="80" fill="#ED1555" width="8.004" height="8"/>
	<rect x="72" y="64" fill="#ED1555" width="8" height="8"/>
	<rect x="64" y="64" fill="#ED1555" width="8" height="8"/>
	<rect x="56" y="64" fill="#ED1555" width="8" height="8"/>
	<rect x="48" y="64" fill="#2A3A4B" width="8" height="8"/>
	<rect x="72" y="56" fill="#ED1555" width="8" height="8"/>
	<rect x="64" y="56" fill="#ED1555" width="8" height="8"/>
	<rect x="56" y="56" fill="#ED1555" width="8" height="8"/>
	<rect x="48" y="56" fill="#ED1555" width="8" height="8"/>
	<rect x="40" y="56" fill="#2A3A4B" width="8" height="8"/>
	<rect x="72" y="40" fill="#2A3A4B" width="8" height="8"/>
	<rect x="56" y="40" fill="#2A3A4B" width="8" height="8"/>
	<rect x="48" y="40" fill="#ED1555" width="8" height="8"/>
	<rect x="40" y="40" fill="#2A3A4B" width="8" height="8"/>
	<rect x="48" y="32" fill="#2A3A4B" width="8" height="8"/>
	<rect x="72" y="112" fill="#ED1555" width="8" height="8"/>
	<rect x="64" y="112" fill="#2A3A4B" width="8" height="8"/>
	<rect x="56" y="112" fill="#ED1555" width="8" height="8"/>
	<rect x="48" y="112" fill="#ED1555" width="8" height="8"/>
	<rect x="40" y="112" fill="#ED1555" width="8" height="8"/>
	<rect x="32" y="112" fill="#2A3A4B" width="8" height="8"/>
	<rect x="72" y="88" fill="#ED1555" width="8" height="8"/>
	<rect x="64" y="88" fill="#ED1555" width="8" height="8"/>
	<rect x="56" y="88" fill="#ED1555" width="8" height="8"/>
	<rect x="48" y="88" fill="#ED1555" width="8" height="8"/>
	<rect x="40" y="88" fill="#2A3A4B" width="8" height="8"/>
	<rect x="72" y="96" fill="#ED1555" width="8" height="8"/>
	<rect x="64" y="96" fill="#ED1555" width="8" height="8"/>
	<rect x="56" y="96" fill="#ED1555" width="8" height="8"/>
	<rect x="48" y="96" fill="#2A3A4B" width="8" height="8"/>
	<rect x="72" y="104" fill="#ED1555" width="8" height="8"/>
	<rect x="64" y="104" fill="#ED1555" width="8" height="8"/>
	<rect x="56" y="104" fill="#ED1555" width="8" height="8"/>
	<rect x="48" y="104" fill="#ED1555" width="8" height="8"/>
	<rect x="40" y="104" fill="#2A3A4B" width="8" height="8"/>
	<rect x="72" y="120" fill="#2A3A4B" width="8" height="8"/>
	<rect x="56" y="120" fill="#2A3A4B" width="8" height="8"/>
	<rect x="48" y="120" fill="#ED1555" width="8" height="8"/>
	<rect x="40" y="120" fill="#2A3A4B" width="8" height="8"/>
	<rect x="48" y="128" fill="#2A3A4B" width="8" height="8"/>
	<rect x="8" y="72" fill="#2A3A4B" width="8" height="8"/>
	<rect x="8" y="80" fill="#ED1555" width="8" height="8"/>
	<rect y="80" fill="#2A3A4B" width="8" height="8"/>
	<rect x="8" y="88" fill="#2A3A4B" width="8" height="8"/>
	<rect x="16" y="64" fill="#2A3A4B" width="8" height="8"/>
	<rect x="16" y="72" fill="#ED1555" width="8" height="8"/>
	<rect x="16" y="80" fill="#ED1555" width="8" height="8"/>
	<rect x="16" y="88" fill="#ED1555" width="8" height="8"/>
	<rect x="16" y="96" fill="#2A3A4B" width="8" height="8"/>
	<rect x="24" y="72" fill="#2A3A4B" width="8" height="8"/>
	<rect x="24" y="80" fill="#ED1555" width="8" height="8"/>
	<rect x="32" y="80" fill="#2A3A4B" width="8" height="8"/>
	<rect x="24" y="88" fill="#2A3A4B" width="8" height="8"/>
	<rect x="72.106" y="24" fill="#2A3A4B" width="8" height="8"/>
	<rect x="72.106" y="16" fill="#ED1555" width="8" height="8"/>
	<rect x="64" y="16" fill="#2A3A4B" width="8" height="8"/>
	<rect x="72.106" y="8" fill="#2A3A4B" width="8" height="8"/>
	<rect x="80.106" y="48" fill="#ED1555" width="8" height="8"/>
	<rect x="80.106" y="64" fill="#ED1555" width="8" height="8"/>
	<rect x="80.106" y="56" fill="#ED1555" width="8" height="8"/>
	<rect x="80.106" y="40" fill="#ED1555" width="8" height="8"/>
	<rect x="80" y="32" fill="#2A3A4B" width="8" height="8"/>
	<rect x="80.106" y="24" fill="#ED1555" width="8" height="8"/>
	<rect x="80.106" y="16" fill="#ED1555" width="8" height="8"/>
	<rect x="80.106" y="8" fill="#ED1555" width="8" height="8"/>
	<rect x="80" fill="#2A3A4B" width="8" height="8"/>
	<rect x="72.106" y="136" fill="#2A3A4B" width="8" height="8"/>
	<rect x="72.106" y="144" fill="#ED1555" width="8" height="8"/>
	<rect x="64" y="144" fill="#2A3A4B" width="8" height="8"/>
	<rect x="72.106" y="152" fill="#2A3A4B" width="8" height="8"/>
	<rect x="80.106" y="112" fill="#ED1555" width="8" height="8"/>
	<rect x="80.106" y="96" fill="#ED1555" width="8" height="8"/>
	<rect x="80.106" y="104" fill="#ED1555" width="8" height="8"/>
	<rect x="80.106" y="120" fill="#ED1555" width="8" height="8"/>
	<rect x="80" y="128" fill="#2A3A4B" width="8" height="8"/>
	<rect x="80.106" y="136" fill="#ED1555" width="8" height="8"/>
	<rect x="80.106" y="144" fill="#ED1555" width="8" height="8"/>
	<rect x="80.106" y="152" fill="#ED1555" width="8" height="8"/>
	<rect x="80" y="160" fill="#2A3A4B" width="8" height="8"/>
</g>
</svg>
