<?xml version="1.0" encoding="utf-8"?>
<!-- Generator: Adobe Illustrator 16.0.3, SVG Export Plug-In . SVG Version: 6.00 Build 0)  -->
<!DOCTYPE svg PUBLIC "-//W3C//DTD SVG 1.1//EN" "http://www.w3.org/Graphics/SVG/1.1/DTD/svg11.dtd">
<svg version="1.1" id="Layer_1" xmlns="http://www.w3.org/2000/svg" xmlns:xlink="http://www.w3.org/1999/xlink" x="0px" y="0px"
	 width="128px" height="128px" viewBox="0 0 128 128" enable-background="new 0 0 128 128" xml:space="preserve">
<circle fill="#ED1555" cx="64" cy="64" r="64"/>
<g>
	<g opacity="0.35">
		<path d="M83.38,50.79L81.94,64.73H70.85c0,17.71,0,39.529,0,39.529H54.43c0,0,0-21.59,0-39.529h-7.81V50.78h7.81v-9.04
			c0-6.47,3.07-16.58,16.58-16.58l12.16,0.05v13.56c0,0-7.4,0-8.83,0c-1.439,0-3.479,0.71-3.479,3.79v8.23H83.38z"/>
	</g>
	<g>
		<linearGradient id="SVGID_1_" gradientUnits="userSpaceOnUse" x1="63.9995" y1="24.1602" x2="63.9995" y2="103.2603">
			<stop  offset="0" style="stop-color:#FFFFFF"/>
			<stop  offset="1" style="stop-color:#D1D3D4"/>
		</linearGradient>
		<path fill="url(#SVGID_1_)" d="M82.38,49.79L80.94,63.73H69.85c0,17.71,0,39.53,0,39.53H53.43c0,0,0-21.59,0-39.53h-7.81V49.78
			h7.81v-9.04c0-6.47,3.07-16.58,16.58-16.58l12.16,0.05v13.56c0,0-7.4,0-8.83,0c-1.439,0-3.479,0.71-3.479,3.79v8.23H82.38z"/>
	</g>
</g>
</svg>
