<?xml version="1.0" encoding="utf-8"?>
<!-- Generator: Adobe Illustrator 16.0.3, SVG Export Plug-In . SVG Version: 6.00 Build 0)  -->
<!DOCTYPE svg PUBLIC "-//W3C//DTD SVG 1.1//EN" "http://www.w3.org/Graphics/SVG/1.1/DTD/svg11.dtd">
<svg version="1.1" id="Layer_1" xmlns="http://www.w3.org/2000/svg" xmlns:xlink="http://www.w3.org/1999/xlink" x="0px" y="0px"
	 width="128px" height="128px" viewBox="0 0 128 128" enable-background="new 0 0 128 128" xml:space="preserve">
<linearGradient id="SVGID_1_" gradientUnits="userSpaceOnUse" x1="63.9995" y1="0" x2="63.9995" y2="128.0005">
	<stop  offset="0" style="stop-color:#ED1555"/>
	<stop  offset="1" style="stop-color:#9C2242"/>
</linearGradient>
<path fill="url(#SVGID_1_)" d="M64.003,0C28.65,0,0,28.65,0,63.997C0,99.344,28.653,128,64.003,128
	C99.344,128,128,99.344,128,63.997C128,28.65,99.341,0,64.003,0z"/>
<g>
	<g opacity="0.35">
		<path d="M67.144,35.88l4.696-3.388c0.576-0.429,0.826-1.172,0.598-1.852c-0.22-0.679-0.848-1.14-1.561-1.14H49.906
			c-2.3,0-4.622,0.398-6.913,1.193c-7.646,2.636-12.99,9.142-12.99,15.835c0,9.466,7.342,16.642,17.153,16.871
			c-0.2,0.744-0.294,1.485-0.294,2.217c0,1.443,0.377,2.834,1.141,4.175H47.73c-9.35,0-17.792,4.581-21.002,11.398
			c-0.826,1.791-1.256,3.579-1.256,5.356c0,1.716,0.439,3.369,1.307,4.938c2.02,3.598,6.34,6.401,12.187,7.866
			c3.023,0.764,6.256,1.15,9.622,1.15c3.023,0,5.899-0.387,8.578-1.15c8.304-2.419,13.682-8.545,13.682-15.595
			c0-6.779-2.177-10.837-8.023-14.978c-2.511-1.77-4.791-4.374-4.832-5.169c0-1.465,0.136-2.164,3.399-4.706
			c4.226-3.306,6.55-7.657,6.55-12.249c0-4.163-1.268-7.865-3.434-10.459h1.674C66.527,36.194,66.861,36.079,67.144,35.88z
			 M40.838,46.256c-0.46-3.462,0.261-6.58,1.998-8.557c1.108-1.265,2.572-1.935,4.216-1.935h0.188
			c4.635,0.136,9.069,5.293,9.884,11.516c0.45,3.473-0.313,6.747-2.07,8.734c-1.108,1.276-2.551,1.957-4.268,1.957h-0.073
			C46.172,57.836,41.644,52.468,40.838,46.256z M61.945,82.823c0.136,0.594,0.21,1.193,0.21,1.777c0,6.152-4.582,9.258-13.607,9.258
			c-6.852,0-12.207-4.207-12.207-9.559c0-4.938,6.255-9.271,13.398-9.271h0.198c1.549,0.021,3.065,0.254,4.487,0.69
			c0.492,0.336,0.962,0.672,1.423,0.973C59.153,78.943,61.34,80.428,61.945,82.823z M102.875,58.326H90.952V46.413
			c0-0.92-0.735-1.652-1.646-1.652h-3.389c-0.919,0-1.652,0.732-1.652,1.652v11.913H72.343c-0.899,0-1.642,0.743-1.642,1.653v3.399
			c0,0.899,0.742,1.641,1.642,1.641h11.923v11.916c0,0.921,0.742,1.651,1.652,1.651h3.389c0.91,0,1.655-0.73,1.655-1.651V65.02
			h11.913c0.91,0,1.652-0.741,1.652-1.641v-3.399C104.527,59.069,103.774,58.326,102.875,58.326z"/>
	</g>
	<g>
		<linearGradient id="SVGID_2_" gradientUnits="userSpaceOnUse" x1="63.9995" y1="28.5" x2="63.9995" y2="99.5005">
			<stop  offset="0" style="stop-color:#FFFFFF"/>
			<stop  offset="1" style="stop-color:#D1D3D4"/>
		</linearGradient>
		<path fill="url(#SVGID_2_)" d="M66.144,34.88l4.696-3.388c0.576-0.429,0.826-1.172,0.598-1.852c-0.22-0.679-0.848-1.14-1.561-1.14
			H48.906c-2.3,0-4.622,0.398-6.913,1.193c-7.646,2.636-12.99,9.142-12.99,15.835c0,9.466,7.342,16.642,17.153,16.871
			c-0.2,0.744-0.294,1.485-0.294,2.217c0,1.443,0.377,2.834,1.141,4.175H46.73c-9.35,0-17.792,4.581-21.002,11.398
			c-0.826,1.791-1.256,3.579-1.256,5.356c0,1.716,0.439,3.369,1.307,4.938c2.02,3.598,6.34,6.401,12.187,7.866
			c3.023,0.764,6.256,1.15,9.622,1.15c3.023,0,5.899-0.387,8.578-1.15c8.304-2.419,13.682-8.545,13.682-15.595
			c0-6.779-2.177-10.837-8.023-14.978c-2.511-1.77-4.791-4.374-4.832-5.169c0-1.465,0.136-2.164,3.399-4.706
			c4.226-3.306,6.55-7.657,6.55-12.249c0-4.163-1.268-7.865-3.434-10.459h1.674C65.527,35.194,65.861,35.079,66.144,34.88z
			 M39.838,45.256c-0.46-3.462,0.261-6.58,1.998-8.557c1.108-1.265,2.572-1.935,4.216-1.935h0.188
			c4.635,0.136,9.069,5.293,9.884,11.516c0.45,3.473-0.313,6.747-2.07,8.734c-1.108,1.276-2.551,1.957-4.268,1.957h-0.073
			C45.172,56.836,40.644,51.468,39.838,45.256z M60.945,81.823c0.136,0.594,0.21,1.193,0.21,1.777c0,6.152-4.582,9.258-13.607,9.258
			c-6.852,0-12.207-4.207-12.207-9.559c0-4.938,6.255-9.271,13.398-9.271h0.198c1.549,0.021,3.065,0.254,4.487,0.69
			c0.492,0.336,0.962,0.672,1.423,0.973C58.153,77.943,60.34,79.428,60.945,81.823z M101.875,57.326H89.952V45.413
			c0-0.92-0.735-1.652-1.646-1.652h-3.389c-0.919,0-1.652,0.732-1.652,1.652v11.913H71.343c-0.899,0-1.642,0.743-1.642,1.653v3.399
			c0,0.899,0.742,1.641,1.642,1.641h11.923v11.916c0,0.921,0.742,1.651,1.652,1.651h3.389c0.91,0,1.655-0.73,1.655-1.651V64.02
			h11.913c0.91,0,1.652-0.741,1.652-1.641v-3.399C103.527,58.069,102.774,57.326,101.875,57.326z"/>
	</g>
</g>
</svg>
