<?xml version="1.0" encoding="utf-8"?>
<!-- Generator: Adobe Illustrator 16.0.3, SVG Export Plug-In . SVG Version: 6.00 Build 0)  -->
<!DOCTYPE svg PUBLIC "-//W3C//DTD SVG 1.1//EN" "http://www.w3.org/Graphics/SVG/1.1/DTD/svg11.dtd">
<svg version="1.1" id="Layer_1" xmlns="http://www.w3.org/2000/svg" xmlns:xlink="http://www.w3.org/1999/xlink" x="0px" y="0px"
	 width="128px" height="128px" viewBox="0 0 128 128" enable-background="new 0 0 128 128" xml:space="preserve">
<linearGradient id="SVGID_1_" gradientUnits="userSpaceOnUse" x1="-155.0103" y1="103.4004" x2="-155.0103" y2="231.4004" gradientTransform="matrix(1 0 0 -1 219.0098 231.4004)">
	<stop  offset="0" style="stop-color:#9C2242"/>
	<stop  offset="1" style="stop-color:#ED1555"/>
</linearGradient>
<path fill="url(#SVGID_1_)" d="M64.003,0C28.65,0,0,28.65,0,63.997C0,99.344,28.653,128,64.003,128
	C99.344,128,128,99.344,128,63.997C128,28.65,99.341,0,64.003,0z"/>
<g>
	<g opacity="0.35">
		<path d="M102.913,43.102c-2.715,1.205-5.634,2.019-8.698,2.385c3.126-1.875,5.528-4.843,6.662-8.38
			c-2.928,1.735-6.17,2.998-9.619,3.676C88.494,37.836,84.557,36,80.203,36c-8.369,0-15.148,6.782-15.148,15.146
			c0,1.187,0.135,2.343,0.391,3.45c-12.585-0.63-23.75-6.66-31.218-15.826c-1.304,2.239-2.05,4.839-2.05,7.616
			c0,5.257,2.673,9.893,6.736,12.609c-2.481-0.081-4.818-0.761-6.86-1.896c0,0.065,0,0.127,0,0.194
			c0,7.334,5.222,13.458,12.152,14.85c-1.273,0.346-2.61,0.53-3.992,0.53c-0.977,0-1.925-0.095-2.851-0.272
			c1.929,6.021,7.523,10.396,14.149,10.521c-5.183,4.062-11.713,6.483-18.812,6.483c-1.222,0-2.426-0.071-3.612-0.211
			C35.791,93.49,43.75,96,52.304,96C80.165,96,95.4,72.919,95.4,52.902c0-0.656-0.015-1.309-0.043-1.96
			C98.314,48.808,100.886,46.14,102.913,43.102z"/>
	</g>
	<g>
		
			<linearGradient id="SVGID_2_" gradientUnits="userSpaceOnUse" x1="-154.0103" y1="196.4004" x2="-154.0103" y2="136.4004" gradientTransform="matrix(1 0 0 -1 219.0098 231.4004)">
			<stop  offset="0" style="stop-color:#FFFFFF"/>
			<stop  offset="1" style="stop-color:#D1D3D4"/>
		</linearGradient>
		<path fill="url(#SVGID_2_)" d="M101.913,42.102c-2.715,1.205-5.634,2.019-8.698,2.385c3.126-1.875,5.528-4.843,6.662-8.38
			c-2.928,1.735-6.17,2.998-9.619,3.676C87.494,36.836,83.557,35,79.203,35c-8.369,0-15.148,6.782-15.148,15.146
			c0,1.187,0.135,2.343,0.39,3.45c-12.586-0.63-23.75-6.66-31.219-15.826c-1.304,2.239-2.05,4.839-2.05,7.616
			c0,5.257,2.673,9.893,6.736,12.609c-2.481-0.081-4.818-0.761-6.86-1.896c0,0.065,0,0.127,0,0.194
			c0,7.335,5.222,13.458,12.152,14.85c-1.273,0.346-2.61,0.53-3.992,0.53c-0.977,0-1.925-0.095-2.851-0.272
			c1.929,6.021,7.523,10.396,14.149,10.521c-5.183,4.062-11.713,6.483-18.812,6.483c-1.222,0-2.426-0.071-3.612-0.211
			C34.791,92.49,42.75,95,51.304,95C79.165,95,94.4,71.919,94.4,51.902c0-0.656-0.015-1.309-0.043-1.96
			C97.314,47.808,99.886,45.14,101.913,42.102z"/>
	</g>
</g>
</svg>
