<?xml version="1.0" encoding="utf-8"?>
<!-- Generator: Adobe Illustrator 16.0.0, SVG Export Plug-In . SVG Version: 6.00 Build 0)  -->
<!DOCTYPE svg PUBLIC "-//W3C//DTD SVG 1.1//EN" "http://www.w3.org/Graphics/SVG/1.1/DTD/svg11.dtd">
<svg version="1.1" id="Layer_1" xmlns="http://www.w3.org/2000/svg" xmlns:xlink="http://www.w3.org/1999/xlink" x="0px" y="0px"
	 width="450px" height="102px" viewBox="3 2 450 102" enable-background="new 3 2 450 102" xml:space="preserve">
<g>
	<g>
		<polygon fill="#ED1555" points="433.622,104 3,104 3,2.4 453,2.4 453,84.568 		"/>
	</g>
</g>
<rect x="3" y="2" fill="#ED648D" width="450" height="1.484"/>
<g>
	<g>
		<g opacity="0.35">
			<path d="M56.635,71.203c-11.315,0-20.521-9.206-20.521-20.52c0-11.316,9.205-20.521,20.521-20.521
				c11.316,0,20.52,9.205,20.52,20.521C77.155,61.997,67.951,71.203,56.635,71.203z M56.635,35.44
				c-8.404,0-15.241,6.839-15.241,15.242c0,8.404,6.837,15.24,15.241,15.24c8.404,0,15.242-6.835,15.242-15.24
				C71.877,42.28,65.04,35.44,56.635,35.44z"/>
		</g>
		<g>
			<g>
				
					<linearGradient id="SVGID_1_" gradientUnits="userSpaceOnUse" x1="56.6348" y1="80.8379" x2="56.6348" y2="39.7969" gradientTransform="matrix(1 0 0 -1 0 110)">
					<stop  offset="0" style="stop-color:#FFFFFF"/>
					<stop  offset="1" style="stop-color:#D1D3D4"/>
				</linearGradient>
				<path fill="url(#SVGID_1_)" d="M56.635,70.203c-11.315,0-20.521-9.206-20.521-20.52c0-11.316,9.205-20.521,20.521-20.521
					c11.316,0,20.52,9.205,20.52,20.521C77.155,60.997,67.951,70.203,56.635,70.203z M56.635,34.44
					c-8.404,0-15.241,6.839-15.241,15.242c0,8.404,6.837,15.24,15.241,15.24c8.404,0,15.242-6.835,15.242-15.24
					C71.877,41.28,65.04,34.44,56.635,34.44z"/>
			</g>
		</g>
	</g>
	<g>
		<g opacity="0.35">
			<rect x="74.458" y="65.179" transform="matrix(-0.707 -0.7072 0.7072 -0.707 88.136 172.1509)" width="10.537" height="5.282"/>
		</g>
		<g>
			<g>
				
					<linearGradient id="SVGID_2_" gradientUnits="userSpaceOnUse" x1="79.7319" y1="48.7729" x2="79.7319" y2="37.5874" gradientTransform="matrix(1 0 0 -1 0 110)">
					<stop  offset="0" style="stop-color:#FFFFFF"/>
					<stop  offset="1" style="stop-color:#D1D3D4"/>
				</linearGradient>
				<polygon fill="url(#SVGID_2_)" points="81.589,72.412 74.139,64.96 77.873,61.227 85.323,68.678 				"/>
			</g>
		</g>
	</g>
</g>
</svg>
