<?xml version="1.0" encoding="utf-8"?>
<!-- Generator: Adobe Illustrator 16.0.3, SVG Export Plug-In . SVG Version: 6.00 Build 0)  -->
<!DOCTYPE svg PUBLIC "-//W3C//DTD SVG 1.1//EN" "http://www.w3.org/Graphics/SVG/1.1/DTD/svg11.dtd">
<svg version="1.1" id="Layer_1" xmlns="http://www.w3.org/2000/svg" xmlns:xlink="http://www.w3.org/1999/xlink" x="0px" y="0px"
	 width="456px" height="108px" viewBox="0 0 456 108" enable-background="new 0 0 456 108" xml:space="preserve">
<g>
	<image overflow="visible" opacity="0.55" width="456" height="108" xlink:href="3DB53C46.png" >
	</image>
	<g>
		<linearGradient id="SVGID_1_" gradientUnits="userSpaceOnUse" x1="228" y1="28.6768" x2="228" y2="103.6087">
			<stop  offset="0" style="stop-color:#ED1555"/>
			<stop  offset="1" style="stop-color:#9C2242"/>
		</linearGradient>
		<polygon fill="url(#SVGID_1_)" points="433.622,104 3,104 3,2 453,2 453,84.493 		"/>
	</g>
</g>
<g>
	<g opacity="0.35">
		<path d="M160.095,74.836h-4.343l-0.705-6.765h-30.286V39.208h6.045v24.021h7.087V39.208h5.723v24.021h7.13V39.208h6.017v24.108
			h3.331V74.836z"/>
		<path d="M172.861,43.669v7.513h9.098v4.417h-9.098v7.967h11.181v4.505h-17.315V39.208h17.242l-0.675,4.461H172.861z"/>
		<path d="M223.015,51.901c1.976,1.521,2.964,3.751,2.964,6.705c0,3.136-1.027,5.503-3.066,7.088
			c-2.055,1.584-4.794,2.376-8.247,2.376h-9.464V39.208h17.476l-0.66,4.71h-10.682v5.708h3.287
			C218.236,49.626,221.039,50.395,223.015,51.901z M218.217,62.377c0.89-0.772,1.335-1.99,1.335-3.698
			c0-1.585-0.445-2.768-1.335-3.536c-0.89-0.783-2.235-1.174-4.05-1.174h-2.832v9.553h2.993
			C216.035,63.522,217.327,63.136,218.217,62.377z"/>
		<path d="M233.022,68.071V39.208h6.177v28.863H233.022z"/>
		<path d="M269.691,68.071h-6.133V43.963h-6.75l-1.13,10.388c-0.392,3.332-0.88,5.943-1.453,7.822
			c-0.587,1.877-1.433,3.32-2.553,4.328c-1.105,1.022-2.661,1.766-4.624,2.246l-1.466-4.388c1.032-0.411,1.785-0.953,2.274-1.629
			c0.488-0.66,0.855-1.594,1.129-2.788c0.259-1.208,0.548-3.116,0.852-5.767l1.79-14.967h18.063V68.071z"/>
		<path d="M296.734,51.504c1.976,1.531,2.964,3.835,2.964,6.882c0,3.258-1.027,5.684-3.066,7.293
			c-2.055,1.595-4.793,2.392-8.247,2.392h-9.464V39.208h6.134v10.007h3.287C291.955,49.215,294.757,49.974,296.734,51.504z
			 M291.935,62.363c0.891-0.782,1.336-2.074,1.336-3.889c0-1.672-0.445-2.905-1.336-3.698c-0.89-0.792-2.234-1.188-4.049-1.188
			h-2.832v9.934h2.994C289.754,63.522,291.045,63.131,291.935,62.363z"/>
		<path d="M306.624,68.071V39.208h6.045v24.021h7.087V39.208h5.723v24.021h7.131V39.208h6.016v28.863H306.624z"/>
		<path d="M353.975,43.669v7.513h9.097v4.417h-9.097v7.967h11.181v4.505h-17.315V39.208h17.226l-0.66,4.461H353.975z"/>
		<path d="M377.508,62.642c0.697,0.709,1.045,1.531,1.045,2.509s-0.348,1.819-1.045,2.525c-0.707,0.703-1.552,1.071-2.551,1.071
			c-0.978,0-1.803-0.368-2.508-1.071c-0.695-0.706-1.042-1.547-1.042-2.525s0.347-1.799,1.042-2.509
			c0.706-0.695,1.531-1.042,2.508-1.042C375.956,61.6,376.802,61.947,377.508,62.642z M372.537,57.683l-0.792-18.475h6.339
			l-0.704,18.475H372.537z"/>
	</g>
	<g>
		<g>
			<linearGradient id="SVGID_2_" gradientUnits="userSpaceOnUse" x1="142.4282" y1="38.208" x2="142.4282" y2="73.8359">
				<stop  offset="0" style="stop-color:#FFFFFF"/>
				<stop  offset="1" style="stop-color:#D1D3D4"/>
			</linearGradient>
			<path fill="url(#SVGID_2_)" d="M160.095,73.836h-4.343l-0.705-6.765h-30.286V38.208h6.045v24.021h7.087V38.208h5.723v24.021h7.13
				V38.208h6.017v24.108h3.331V73.836z"/>
			<linearGradient id="SVGID_3_" gradientUnits="userSpaceOnUse" x1="175.3843" y1="38.208" x2="175.3843" y2="67.0708">
				<stop  offset="0" style="stop-color:#FFFFFF"/>
				<stop  offset="1" style="stop-color:#D1D3D4"/>
			</linearGradient>
			<path fill="url(#SVGID_3_)" d="M172.861,42.669v7.513h9.098v4.417h-9.098v7.967h11.181v4.505h-17.315V38.208h17.242l-0.675,4.461
				H172.861z"/>
			<linearGradient id="SVGID_4_" gradientUnits="userSpaceOnUse" x1="215.5903" y1="38.208" x2="215.5903" y2="67.0708">
				<stop  offset="0" style="stop-color:#FFFFFF"/>
				<stop  offset="1" style="stop-color:#D1D3D4"/>
			</linearGradient>
			<path fill="url(#SVGID_4_)" d="M223.015,50.901c1.976,1.521,2.964,3.751,2.964,6.705c0,3.136-1.027,5.503-3.066,7.088
				c-2.055,1.584-4.794,2.376-8.247,2.376h-9.464V38.208h17.476l-0.66,4.71h-10.682v5.708h3.287
				C218.236,48.626,221.039,49.395,223.015,50.901z M218.217,61.377c0.89-0.772,1.335-1.99,1.335-3.698
				c0-1.585-0.445-2.768-1.335-3.536c-0.89-0.783-2.235-1.174-4.05-1.174h-2.832v9.553h2.993
				C216.035,62.522,217.327,62.136,218.217,61.377z"/>
			<linearGradient id="SVGID_5_" gradientUnits="userSpaceOnUse" x1="236.1108" y1="38.208" x2="236.1108" y2="67.0708">
				<stop  offset="0" style="stop-color:#FFFFFF"/>
				<stop  offset="1" style="stop-color:#D1D3D4"/>
			</linearGradient>
			<path fill="url(#SVGID_5_)" d="M233.022,67.071V38.208h6.177v28.863H233.022z"/>
			<linearGradient id="SVGID_6_" gradientUnits="userSpaceOnUse" x1="257.6367" y1="38.208" x2="257.6367" y2="67.7466">
				<stop  offset="0" style="stop-color:#FFFFFF"/>
				<stop  offset="1" style="stop-color:#D1D3D4"/>
			</linearGradient>
			<path fill="url(#SVGID_6_)" d="M269.691,67.071h-6.133V42.963h-6.75l-1.13,10.388c-0.392,3.332-0.88,5.943-1.453,7.822
				c-0.587,1.877-1.433,3.32-2.553,4.328c-1.105,1.022-2.661,1.766-4.624,2.246l-1.466-4.388c1.032-0.411,1.785-0.953,2.274-1.629
				c0.488-0.66,0.855-1.594,1.129-2.788c0.259-1.208,0.548-3.116,0.852-5.767l1.79-14.967h18.063V67.071z"/>
			<linearGradient id="SVGID_7_" gradientUnits="userSpaceOnUse" x1="289.3091" y1="38.208" x2="289.3091" y2="67.0708">
				<stop  offset="0" style="stop-color:#FFFFFF"/>
				<stop  offset="1" style="stop-color:#D1D3D4"/>
			</linearGradient>
			<path fill="url(#SVGID_7_)" d="M296.734,50.504c1.976,1.531,2.964,3.835,2.964,6.882c0,3.258-1.027,5.684-3.066,7.293
				c-2.055,1.595-4.793,2.392-8.247,2.392h-9.464V38.208h6.134v10.007h3.287C291.955,48.215,294.757,48.974,296.734,50.504z
				 M291.935,61.363c0.891-0.782,1.336-2.074,1.336-3.889c0-1.672-0.445-2.905-1.336-3.698c-0.89-0.792-2.234-1.188-4.049-1.188
				h-2.832v9.934h2.994C289.754,62.522,291.045,62.131,291.935,61.363z"/>
			<linearGradient id="SVGID_8_" gradientUnits="userSpaceOnUse" x1="322.6255" y1="38.208" x2="322.6255" y2="67.0708">
				<stop  offset="0" style="stop-color:#FFFFFF"/>
				<stop  offset="1" style="stop-color:#D1D3D4"/>
			</linearGradient>
			<path fill="url(#SVGID_8_)" d="M306.624,67.071V38.208h6.045v24.021h7.087V38.208h5.723v24.021h7.131V38.208h6.016v28.863
				H306.624z"/>
			<linearGradient id="SVGID_9_" gradientUnits="userSpaceOnUse" x1="356.4985" y1="38.208" x2="356.4985" y2="67.0708">
				<stop  offset="0" style="stop-color:#FFFFFF"/>
				<stop  offset="1" style="stop-color:#D1D3D4"/>
			</linearGradient>
			<path fill="url(#SVGID_9_)" d="M353.975,42.669v7.513h9.097v4.417h-9.097v7.967h11.181v4.505h-17.315V38.208h17.226l-0.66,4.461
				H353.975z"/>
			<linearGradient id="SVGID_10_" gradientUnits="userSpaceOnUse" x1="374.98" y1="38.208" x2="374.98" y2="67.7466">
				<stop  offset="0" style="stop-color:#FFFFFF"/>
				<stop  offset="1" style="stop-color:#D1D3D4"/>
			</linearGradient>
			<path fill="url(#SVGID_10_)" d="M377.508,61.642c0.697,0.709,1.045,1.531,1.045,2.509s-0.348,1.819-1.045,2.525
				c-0.707,0.703-1.552,1.071-2.551,1.071c-0.978,0-1.803-0.368-2.508-1.071c-0.695-0.706-1.042-1.547-1.042-2.525
				s0.347-1.799,1.042-2.509c0.706-0.695,1.531-1.042,2.508-1.042C375.956,60.6,376.802,60.947,377.508,61.642z M372.537,56.683
				l-0.792-18.475h6.339l-0.704,18.475H372.537z"/>
		</g>
	</g>
</g>
<rect x="3" y="2" fill="#ED648D" width="450" height="1.488"/>
<g>
	<g opacity="0.35">
		<path d="M56.638,71.208c-11.305,0-20.523-9.219-20.523-20.523c0-11.32,9.219-20.524,20.523-20.524
			c11.319,0,20.523,9.204,20.523,20.524C77.161,61.989,67.958,71.208,56.638,71.208z M56.638,35.445
			c-8.407,0-15.24,6.834-15.24,15.24c0,8.405,6.833,15.24,15.24,15.24s15.24-6.834,15.24-15.24
			C71.878,42.279,65.045,35.445,56.638,35.445z"/>
	</g>
	<g>
		<g>
			<linearGradient id="SVGID_11_" gradientUnits="userSpaceOnUse" x1="56.6382" y1="29.1611" x2="56.6382" y2="70.2085">
				<stop  offset="0" style="stop-color:#FFFFFF"/>
				<stop  offset="1" style="stop-color:#D1D3D4"/>
			</linearGradient>
			<path fill="url(#SVGID_11_)" d="M56.638,70.208c-11.305,0-20.523-9.219-20.523-20.523c0-11.32,9.219-20.524,20.523-20.524
				c11.319,0,20.523,9.204,20.523,20.524C77.161,60.989,67.958,70.208,56.638,70.208z M56.638,34.445
				c-8.407,0-15.24,6.834-15.24,15.24c0,8.405,6.833,15.24,15.24,15.24s15.24-6.834,15.24-15.24
				C71.878,41.279,65.045,34.445,56.638,34.445z"/>
		</g>
	</g>
</g>
<g>
	<g opacity="0.35">
		<polygon points="81.601,73.407 74.145,65.965 77.886,62.224 85.328,69.68 		"/>
	</g>
	<g>
		<g>
			<linearGradient id="SVGID_12_" gradientUnits="userSpaceOnUse" x1="79.7368" y1="61.2236" x2="79.7368" y2="72.4067">
				<stop  offset="0" style="stop-color:#FFFFFF"/>
				<stop  offset="1" style="stop-color:#D1D3D4"/>
			</linearGradient>
			<polygon fill="url(#SVGID_12_)" points="81.601,72.407 74.145,64.965 77.886,61.224 85.328,68.68 			"/>
		</g>
	</g>
</g>
</svg>
