<?xml version="1.0" encoding="utf-8"?>
<!-- Generator: Adobe Illustrator 16.0.3, SVG Export Plug-In . SVG Version: 6.00 Build 0)  -->
<!DOCTYPE svg PUBLIC "-//W3C//DTD SVG 1.1//EN" "http://www.w3.org/Graphics/SVG/1.1/DTD/svg11.dtd">
<svg version="1.1" id="Layer_1" xmlns="http://www.w3.org/2000/svg" xmlns:xlink="http://www.w3.org/1999/xlink" x="0px" y="0px"
	 width="118.855px" height="128px" viewBox="0 0 118.855 128" enable-background="new 0 0 118.855 128" xml:space="preserve">
<path fill="#2A3A4B" d="M9.145,118.855h20.567V98.283H9.145V118.855z M34.283,118.855h22.861V98.283H34.283V118.855z M9.145,93.717
	h20.567V70.855H9.145V93.717z M34.283,93.717h22.861V70.855H34.283V93.717z M9.145,66.283h20.567V45.717H9.145V66.283z
	 M61.712,118.855h22.86V98.283h-22.86V118.855z M34.283,66.283h22.861V45.717H34.283V66.283z M89.145,118.855h20.567V98.283H89.145
	V118.855z M61.712,93.717h22.86V70.855h-22.86V93.717z M36.572,32V11.428c0-0.62-0.227-1.153-0.678-1.605
	c-0.452-0.452-0.99-0.678-1.611-0.678h-4.571c-0.616,0-1.154,0.226-1.606,0.678c-0.451,0.452-0.678,0.985-0.678,1.605V32
	c0,0.62,0.227,1.154,0.678,1.605c0.452,0.452,0.99,0.678,1.606,0.678h4.571c0.621,0,1.159-0.226,1.611-0.678
	C36.346,33.154,36.572,32.62,36.572,32z M89.145,93.717h20.567V70.855H89.145V93.717z M61.712,66.283h22.86V45.717h-22.86V66.283z
	 M89.145,66.283h20.567V45.717H89.145V66.283z M91.428,32V11.428c0-0.62-0.226-1.153-0.678-1.605s-0.99-0.678-1.605-0.678h-4.572
	c-0.62,0-1.159,0.226-1.61,0.678c-0.452,0.452-0.679,0.985-0.679,1.605V32c0,0.62,0.227,1.154,0.679,1.605
	c0.451,0.452,0.99,0.678,1.61,0.678h4.572c0.615,0,1.153-0.226,1.605-0.678C91.202,33.154,91.428,32.62,91.428,32z M118.855,27.428
	v91.428c0,2.477-0.903,4.62-2.711,6.428c-1.813,1.813-3.952,2.717-6.433,2.717H9.145c-2.481,0-4.62-0.904-6.433-2.717
	C0.904,123.476,0,121.332,0,118.855V27.428c0-2.476,0.904-4.62,2.712-6.428c1.813-1.808,3.951-2.717,6.433-2.717h9.139v-6.855
	c0-3.145,1.121-5.832,3.361-8.072C23.88,1.12,26.572,0,29.712,0h4.571c3.145,0,5.837,1.12,8.072,3.355
	c2.24,2.24,3.356,4.928,3.356,8.072v6.855h27.433v-6.855c0-3.145,1.115-5.832,3.355-8.072C78.735,1.12,81.428,0,84.572,0h4.572
	c3.139,0,5.831,1.12,8.067,3.355c2.24,2.24,3.36,4.928,3.36,8.072v6.855h9.14c2.48,0,4.62,0.909,6.433,2.717
	C117.952,22.808,118.855,24.952,118.855,27.428z"/>
</svg>
