<?xml version="1.0" encoding="utf-8"?>
<!-- Generator: Adobe Illustrator 16.0.3, SVG Export Plug-In . SVG Version: 6.00 Build 0)  -->
<!DOCTYPE svg PUBLIC "-//W3C//DTD SVG 1.1//EN" "http://www.w3.org/Graphics/SVG/1.1/DTD/svg11.dtd">
<svg version="1.1" id="Layer_1" xmlns="http://www.w3.org/2000/svg" xmlns:xlink="http://www.w3.org/1999/xlink" x="0px" y="0px"
	 width="127.999px" height="128.001px" viewBox="0 0 127.999 128.001" enable-background="new 0 0 127.999 128.001"
	 xml:space="preserve">
<g>
	<path fill-rule="evenodd" clip-rule="evenodd" fill="#2A3A4B" d="M0.001,63.953C0.169,28.353,28.895-0.257,64.212,0.002
		c35.514,0.265,63.975,28.865,63.787,64.109C127.812,99.659,99.201,128.154,63.856,128C28.413,127.842-0.163,99.184,0.001,63.953z
		 M63.981,12.877C35.803,12.887,12.88,35.814,12.88,63.996c0,28.178,22.938,51.139,51.087,51.129
		c28.269-0.01,51.152-22.908,51.157-51.177C115.129,35.805,92.163,12.872,63.981,12.877z"/>
	<path fill-rule="evenodd" clip-rule="evenodd" fill="#2A3A4B" d="M83.524,52.665c0.519,0,0.971,0,1.428,0
		c3.495,0,6.99,0.02,10.49-0.01c1.11-0.01,1.634,0.395,1.596,1.553c-0.043,1.472,0.029,2.947-0.015,4.423
		c-0.038,1.395-0.456,1.794-1.855,1.794c-4.721,0.014-9.438-0.029-14.153,0.028c-0.63,0.01-1.414,0.317-1.847,0.76
		c-2.139,2.163-4.61,3.788-7.384,4.985c-0.572,0.245-1.125,0.538-1.664,1.115c0.549,0,1.102,0,1.649,0
		c7.793,0,15.586,0,23.379,0.005c1.697,0,1.885,0.197,1.88,1.885c0,1.303,0.02,2.61,0.01,3.918c-0.02,1.788-0.476,2.226-2.26,2.226
		c-12.976-0.004-25.951-0.009-38.927-0.009c-1.918,0-1.976,0.053-2.476,1.913c-1.616,6.038,1.908,11.928,7.966,13.601
		c5.98,1.649,12.74-0.817,15.61-6.11c0.673-1.24,1.178-1.25,2.265-0.255c1.74,1.592,3.438,3.23,5.201,4.798
		c0.808,0.722,0.899,1.36,0.294,2.289c-2.495,3.821-5.977,6.346-10.24,7.821c-6.424,2.227-12.86,2.149-19.115-0.48
		c-7.934-3.332-12.275-10.515-12.016-19.418c0.039-1.337,0.183-2.673,0.289-4.153c-1.832,0-3.587,0-5.347-0.005
		c-1.683,0-3.37,0.033-5.058-0.01c-1.461-0.034-2.23-0.852-2.25-2.298c-0.014-1.097,0.005-2.192,0-3.289
		c-0.014-2.144,0.26-2.428,2.361-2.423c4.211,0,8.428-0.02,12.639,0.015c0.947,0.01,1.578-0.255,2.271-0.98
		c2.148-2.241,4.745-3.885,7.634-5.044c0.5-0.201,1.005-0.398,1.505-0.813c-0.38-0.023-0.76-0.071-1.139-0.071
		c-7.327,0-14.66,0.004-21.991,0.004c-0.462,0.005-0.928,0.02-1.39-0.023c-1.274-0.135-1.88-0.789-1.895-2.063
		c-0.014-1.265,0-2.529,0.005-3.793c0.005-1.457,0.375-1.861,1.88-1.875c3.159-0.029,6.322-0.02,9.48-0.02
		c9.606,0,19.213-0.033,28.818,0.053c1.438,0.01,2.067-0.548,2.423-1.755c1.645-5.615,0.077-11.745-7.005-13.735
		c-4.346-1.221-8.533-0.846-12.125,2.227c-0.783,0.668-1.38,1.571-1.995,2.423c-0.826,1.148-1.317,1.265-2.293,0.313
		c-1.726-1.668-3.414-3.38-5.149-5.039c-0.779-0.74-0.717-1.346-0.077-2.163c4.52-5.808,10.654-8,17.765-7.87
		c6.567,0.125,12.283,2.332,16.64,7.433c3.428,4.015,4.601,8.803,4.471,13.976C83.774,49.813,83.63,51.112,83.524,52.665z"/>
</g>
</svg>
