<?xml version="1.0" encoding="utf-8"?>
<!-- Generator: Adobe Illustrator 16.0.3, SVG Export Plug-In . SVG Version: 6.00 Build 0)  -->
<!DOCTYPE svg PUBLIC "-//W3C//DTD SVG 1.1//EN" "http://www.w3.org/Graphics/SVG/1.1/DTD/svg11.dtd">
<svg version="1.1" id="Layer_1" xmlns="http://www.w3.org/2000/svg" xmlns:xlink="http://www.w3.org/1999/xlink" x="0px" y="0px"
	 width="256.241px" height="58.105px" viewBox="0 0 256.241 58.105" enable-background="new 0 0 256.241 58.105"
	 xml:space="preserve">
<g>
	<g opacity="0.35">
		<path d="M10.983,55.112c0,1.082-0.875,1.957-1.958,1.957H3.151c-1.082,0-1.958-0.875-1.958-1.957V23.783
			c0-1.083,0.876-1.958,1.958-1.958h5.875c1.082,0,1.958,0.875,1.958,1.958V55.112z M55.973,26.789
			c-0.039,0.967-0.443,2.867-3.87,2.867c-2.938,0-3.917,0-3.917,0c-0.543,0-0.979,0.44-0.979,0.979c0,0.541,0.437,0.979,0.979,0.979
			c0,0,0.856,0,3.793,0c2.938,0,3.323,2.437,3.134,3.61c-0.243,1.46-0.927,4.222-4.234,4.222c-3.305,0-4.651,0-4.651,0
			c-0.543,0-0.979,0.438-0.979,0.979c0,0.54,0.436,0.979,0.979,0.979c0,0,2.324,0,3.855,0c3.303,0,3.013,2.521,2.539,4.024
			c-0.624,1.979-1.005,3.809-5.17,3.809c-1.407,0-3.193,0-3.193,0c-0.542,0-0.979,0.438-0.979,0.979c0,0.54,0.437,0.979,0.979,0.979
			c0,0,1.358,0,3.071,0c2.141,0,2.241,2.026,2.019,2.754c-0.245,0.795-0.535,1.385-0.547,1.41c-0.592,1.067-1.544,1.71-3.563,1.71
			H34.533c-5.377,0-10.711-1.218-10.849-1.25c-8.133-1.875-8.563-2.02-9.071-2.164c0,0-1.658-0.279-1.658-1.726l-0.013-27.045
			c0-0.918,0.585-1.748,1.555-2.038c0.12-0.048,0.285-0.1,0.403-0.147c8.946-3.706,11.667-11.827,11.749-18.497
			c0.011-0.937,0.734-1.958,1.958-1.958c2.069,0,5.729,4.155,5.729,9.297c0,4.643-0.188,5.446-1.813,10.284
			c19.581,0,19.442,0.283,21.171,0.733c2.142,0.613,2.326,2.387,2.326,2.999C56.019,26.229,56,26.131,55.973,26.789z"/>
		<path d="M94.774,47.362l-0.726,5.231h-19.09V19.115h6.396v28.248H94.774z"/>
		<path d="M99.479,52.594V19.115h6.444v33.479H99.479z"/>
		<path d="M113.775,52.594V19.115h6.395v33.479H113.775z M139.89,52.594h-7.607l-11.821-17.879l11.579-15.6h6.929L127.389,34.28
			L139.89,52.594z"/>
		<path d="M149.875,23.863v9.35h10.757v4.75h-10.757v9.834h13.229v4.797H143.48V19.115h19.43l-0.679,4.749H149.875z"/>
		<path d="M189.966,30.954c0,0.469-0.127,0.827-0.381,1.074c-0.253,0.248-0.546,0.467-0.875,0.657
			c-0.419,0.19-0.886,0.361-1.399,0.514s-1.04,0.289-1.579,0.409c-0.54,0.12-1.082,0.222-1.628,0.305
			c-0.545,0.082-1.065,0.148-1.561,0.199c-0.533,0.052-1.097,0.102-1.694,0.153c-0.596,0.05-1.173,0.104-1.732,0.162
			c-0.558,0.057-1.074,0.123-1.55,0.199c-0.477,0.075-0.86,0.172-1.152,0.285c-0.267,1.154-0.548,2.255-0.847,3.302
			s-0.549,2.09-0.752,3.131c-0.051,0.241-0.117,0.603-0.199,1.085c-0.083,0.482-0.162,0.986-0.238,1.514
			c-0.076,0.526-0.143,1.021-0.2,1.484c-0.057,0.463-0.085,0.796-0.085,0.999c0,0.521,0.082,0.91,0.247,1.17
			c0.165,0.261,0.346,0.471,0.543,0.628c0.196,0.159,0.377,0.309,0.542,0.448s0.247,0.349,0.247,0.628
			c0,0.178-0.085,0.349-0.257,0.514c-0.171,0.165-0.378,0.311-0.619,0.438c-0.24,0.127-0.498,0.226-0.771,0.296
			c-0.272,0.069-0.51,0.104-0.714,0.104c-0.368,0-0.697-0.102-0.989-0.305c-0.291-0.203-0.539-0.467-0.742-0.79
			c-0.203-0.324-0.362-0.695-0.476-1.114c-0.114-0.418-0.172-0.85-0.172-1.293c0-0.584,0.051-1.209,0.152-1.875
			c0.102-0.667,0.229-1.349,0.381-2.046c0.152-0.698,0.314-1.412,0.485-2.142s0.332-1.456,0.485-2.18
			c0.063-0.304,0.13-0.619,0.2-0.942c0.069-0.322,0.133-0.627,0.189-0.913c0.058-0.284,0.104-0.522,0.144-0.713
			c0.038-0.19,0.058-0.305,0.058-0.343c0-0.203-0.074-0.358-0.22-0.466c-0.146-0.108-0.32-0.162-0.524-0.162
			c-0.151,0-0.379,0.013-0.685,0.038c-0.305,0.024-0.625,0.057-0.961,0.095c-0.337,0.039-0.656,0.069-0.961,0.096
			c-0.305,0.025-0.526,0.038-0.666,0.038c-0.457,0-0.844-0.029-1.162-0.086c-0.316-0.057-0.573-0.161-0.771-0.314
			c-0.196-0.152-0.343-0.364-0.438-0.638c-0.095-0.272-0.143-0.625-0.143-1.056c0-0.178,0.082-0.317,0.247-0.419
			s0.365-0.175,0.6-0.219c0.234-0.045,0.485-0.07,0.752-0.076c0.267-0.007,0.501-0.01,0.705-0.01c0.164,0,0.434-0.016,0.808-0.047
			c0.375-0.032,0.769-0.067,1.181-0.104c0.412-0.039,0.806-0.074,1.18-0.104c0.375-0.032,0.645-0.049,0.81-0.049
			c0.076,0,0.164-0.006,0.266-0.019c0.103-0.013,0.207-0.048,0.314-0.104c0.108-0.058,0.206-0.152,0.295-0.286
			c0.089-0.133,0.165-0.32,0.229-0.561c0.089-0.394,0.196-0.854,0.323-1.381c0.127-0.526,0.258-1.066,0.391-1.617
			c0.134-0.553,0.264-1.085,0.391-1.599c0.127-0.515,0.234-0.955,0.323-1.324c0.114-0.354,0.212-0.735,0.295-1.141
			c0.082-0.406,0.158-0.813,0.229-1.219c0.069-0.406,0.149-0.799,0.238-1.18c0.088-0.38,0.202-0.729,0.342-1.046
			c0.279-0.66,0.729-0.99,1.352-0.99c0.939,0,1.408,0.521,1.408,1.561c0,0.647-0.14,1.389-0.419,2.227
			c-0.608,1.928-1.059,3.519-1.351,4.768c-0.292,1.25-0.438,2.091-0.438,2.521c0,0.47,0.234,0.704,0.704,0.704
			c0.57,0,1.106-0.009,1.607-0.027c0.502-0.02,1.01-0.052,1.523-0.096s1.056-0.099,1.627-0.161c0.571-0.064,1.212-0.134,1.922-0.211
			c0.508-0.063,0.993-0.139,1.456-0.228c0.464-0.089,0.892-0.174,1.285-0.257s0.742-0.161,1.048-0.238
			c0.304-0.076,0.558-0.127,0.761-0.151c0.139-0.013,0.275-0.032,0.409-0.058c0.133-0.025,0.247-0.029,0.342-0.01
			c0.096,0.02,0.172,0.069,0.229,0.152C189.938,30.626,189.966,30.763,189.966,30.954z"/>
		<path d="M211.188,31.771c0,0.216-0.048,0.435-0.143,0.657c-0.096,0.222-0.219,0.438-0.371,0.646
			c-0.153,0.21-0.32,0.406-0.505,0.591c-0.184,0.184-0.371,0.333-0.561,0.446c-0.445,0.293-1.076,0.55-1.895,0.771
			c-0.819,0.222-1.83,0.333-3.036,0.333c-0.964,0-1.935-0.124-2.912-0.371c-0.977-0.248-1.916-0.657-2.817-1.228
			c0.292,0.443,0.48,0.869,0.563,1.275c0.082,0.405,0.123,0.889,0.123,1.446c0,1.002-0.254,2.067-0.761,3.196
			c-0.495,1.143-1.137,2.202-1.922,3.18c-0.787,0.977-1.618,1.788-2.494,2.436c-0.495,0.368-1.037,0.688-1.627,0.961
			c-0.59,0.272-1.209,0.495-1.856,0.666c-0.646,0.172-1.32,0.299-2.018,0.381s-1.402,0.124-2.112,0.124
			c-0.495,0-0.978-0.159-1.446-0.476c-0.47-0.317-0.889-0.705-1.257-1.161c-0.367-0.457-0.663-0.945-0.885-1.466
			s-0.333-0.989-0.333-1.409c0-1.026,0.137-2.014,0.409-2.959s0.641-1.859,1.104-2.74c0.463-0.882,0.998-1.745,1.608-2.588
			c0.608-0.844,1.255-1.685,1.94-2.522c0.381-0.47,0.815-0.93,1.304-1.379c0.488-0.451,0.999-0.854,1.532-1.21
			c0.533-0.354,1.072-0.644,1.618-0.866c0.546-0.222,1.065-0.332,1.561-0.332c0.406,0,0.755,0.057,1.047,0.171
			s0.567,0.275,0.828,0.485c0.26,0.209,0.526,0.473,0.8,0.79c0.272,0.317,0.586,0.673,0.941,1.066
			c0.114,0.113,0.429,0.281,0.942,0.504c0.514,0.222,1.123,0.438,1.827,0.646c0.704,0.21,1.443,0.394,2.218,0.553
			c0.774,0.158,1.478,0.237,2.112,0.237s1.218-0.022,1.751-0.065c0.533-0.045,1.05-0.119,1.551-0.22
			c0.502-0.102,1-0.241,1.494-0.419c0.495-0.178,1.028-0.394,1.599-0.646C211.163,31.467,211.188,31.632,211.188,31.771z
			 M196.97,36.34c0.013-0.355-0.012-0.759-0.075-1.209c-0.063-0.451-0.175-0.875-0.333-1.275c-0.159-0.399-0.368-0.726-0.628-0.979
			c-0.261-0.254-0.582-0.355-0.961-0.306c-0.585-0.228-1.066-0.469-1.447-0.723s-0.672-0.381-0.876-0.381
			c-0.151,0-0.316,0.048-0.495,0.143c-0.177,0.096-0.361,0.226-0.551,0.391c-0.191,0.165-0.384,0.358-0.581,0.58
			c-0.196,0.223-0.39,0.454-0.581,0.695c-0.38,0.495-0.732,0.945-1.056,1.352c-0.324,0.406-0.628,0.809-0.914,1.208
			c-0.285,0.4-0.562,0.819-0.827,1.257c-0.267,0.438-0.533,0.929-0.8,1.474c-0.114,0.229-0.216,0.502-0.304,0.819
			c-0.09,0.316-0.166,0.644-0.229,0.98c-0.063,0.336-0.111,0.672-0.143,1.008c-0.031,0.337-0.048,0.638-0.048,0.904
			c0,0.165,0.057,0.364,0.172,0.6c0.114,0.234,0.263,0.464,0.447,0.686c0.184,0.222,0.394,0.409,0.628,0.561
			c0.234,0.152,0.466,0.229,0.694,0.229c0.647,0,1.2-0.028,1.656-0.085s0.879-0.159,1.266-0.305c0.388-0.146,0.776-0.347,1.17-0.601
			c0.394-0.252,0.851-0.583,1.371-0.989c0.254-0.189,0.504-0.412,0.752-0.666c0.247-0.253,0.491-0.523,0.732-0.809
			s0.469-0.577,0.686-0.876c0.216-0.298,0.418-0.593,0.609-0.884c0.127-0.191,0.234-0.426,0.323-0.705s0.158-0.558,0.21-0.838
			c0.05-0.278,0.085-0.532,0.104-0.76C196.961,36.606,196.97,36.441,196.97,36.34z"/>
		<path d="M240.746,32.323c0,0.483-0.12,1.031-0.361,1.646s-0.57,1.19-0.989,1.723c-0.532,0.686-1.132,1.364-1.799,2.036
			c-0.666,0.672-1.36,1.316-2.084,1.932c-0.723,0.615-1.46,1.187-2.208,1.713s-1.476,0.984-2.179,1.37
			c-0.704,0.387-1.367,0.692-1.989,0.914s-1.167,0.333-1.637,0.333c-0.597,0-1.117-0.102-1.561-0.305
			c-0.445-0.203-0.828-0.479-1.152-0.827c-0.323-0.35-0.593-0.759-0.809-1.229s-0.402-0.964-0.562-1.484
			c-0.159-0.52-0.288-1.057-0.391-1.608c-0.101-0.552-0.196-1.087-0.284-1.607c-0.318,0.481-0.677,1.023-1.076,1.626
			s-0.818,1.215-1.257,1.837c-0.437,0.622-0.881,1.222-1.332,1.799c-0.45,0.577-0.872,1.082-1.266,1.514
			c-0.443,0.47-0.929,0.919-1.456,1.352c-0.526,0.431-1.084,0.809-1.674,1.133c-0.591,0.322-1.21,0.583-1.856,0.779
			c-0.647,0.197-1.313,0.295-1.998,0.295c-1.003,0-1.79-0.412-2.36-1.236c-0.559-0.825-0.837-1.777-0.837-2.855
			c0-0.508,0.04-1.038,0.123-1.589c0.082-0.553,0.178-1.101,0.285-1.646c0.107-0.547,0.212-1.082,0.314-1.608
			c0.102-0.527,0.171-1.024,0.209-1.493c0.013-0.19,0.022-0.428,0.029-0.714c0.006-0.286,0.009-0.619,0.009-0.999
			c0-0.343,0-0.657,0-0.942s0.007-0.559,0.02-0.818c0.012-0.261,0.031-0.518,0.057-0.771s0.063-0.52,0.114-0.799
			c0.076-0.432,0.247-0.807,0.514-1.123c0.267-0.317,0.685-0.476,1.257-0.476c1.167,0,1.751,0.805,1.751,2.417
			c0,0.279-0.029,0.586-0.086,0.923c-0.057,0.336-0.124,0.685-0.2,1.047c-0.075,0.361-0.155,0.729-0.237,1.104
			s-0.156,0.739-0.219,1.096c-0.127,0.494-0.254,0.988-0.381,1.483s-0.244,0.977-0.352,1.446c-0.108,0.469-0.194,0.923-0.258,1.36
			s-0.096,0.841-0.096,1.209c0,0.19,0.025,0.403,0.077,0.638c0.05,0.234,0.127,0.456,0.228,0.666
			c0.102,0.209,0.238,0.384,0.41,0.523c0.171,0.14,0.371,0.21,0.6,0.21c0.672,0,1.351-0.188,2.035-0.563
			c0.687-0.374,1.343-0.837,1.972-1.389c0.628-0.553,1.218-1.142,1.769-1.771c0.553-0.628,1.038-1.203,1.457-1.722
			c0.405-0.521,0.809-1.137,1.208-1.846c0.4-0.711,0.781-1.45,1.143-2.219c0.361-0.767,0.707-1.531,1.037-2.293
			c0.33-0.761,0.628-1.446,0.895-2.055c0.596-1.396,1.129-2.095,1.599-2.095c0.343,0,0.571,0.055,0.686,0.162
			s0.171,0.326,0.171,0.657c0,0.254-0.028,0.596-0.085,1.027c-0.058,0.432-0.124,0.882-0.2,1.352s-0.143,0.92-0.2,1.352
			c-0.057,0.431-0.085,0.768-0.085,1.009c0,0.216,0.003,0.479,0.01,0.789c0.006,0.312,0.016,0.632,0.028,0.961
			c0.012,0.331,0.034,0.657,0.066,0.981c0.031,0.323,0.072,0.6,0.123,0.827c0.052,0.267,0.14,0.593,0.267,0.979
			c0.127,0.388,0.289,0.765,0.485,1.133s0.435,0.682,0.714,0.941c0.279,0.261,0.603,0.391,0.971,0.391
			c0.686,0,1.463-0.202,2.332-0.609c0.869-0.406,1.76-0.929,2.674-1.569s1.82-1.357,2.722-2.15c0.901-0.794,1.738-1.576,2.513-2.351
			c0.304-0.305,0.612-0.609,0.923-0.914c0.312-0.304,0.597-0.558,0.856-0.762c0.26-0.202,0.47-0.336,0.628-0.398
			C240.668,32.107,240.746,32.159,240.746,32.323z"/>
		<path d="M255.193,32.361c0,0.077-0.007,0.188-0.02,0.333c-0.013,0.146-0.043,0.292-0.095,0.438
			c-0.051,0.146-0.11,0.276-0.181,0.391c-0.069,0.113-0.161,0.17-0.275,0.17c-0.077,0-0.204-0.003-0.381-0.01
			c-0.179-0.005-0.365-0.015-0.563-0.027c-0.196-0.013-0.384-0.022-0.561-0.028c-0.178-0.007-0.305-0.01-0.381-0.01
			c-2.424,0.152-4.441,1.041-6.053,2.665c-1.587,1.585-2.957,3.704-4.111,6.355c-0.216,0.546-0.429,1.11-0.638,1.694
			s-0.409,1.199-0.6,1.847c-0.101,0.354-0.175,0.668-0.219,0.941s-0.118,0.563-0.219,0.866c-0.026,0.102-0.134,0.2-0.323,0.295
			c-0.191,0.096-0.403,0.181-0.638,0.258c-0.235,0.075-0.46,0.14-0.677,0.189c-0.215,0.051-0.361,0.077-0.438,0.077
			c-0.875,0.05-1.37-0.857-1.484-2.723c-0.038-0.507-0.054-0.968-0.048-1.38c0.007-0.412,0.022-0.813,0.048-1.199
			c0.025-0.388,0.06-0.793,0.104-1.218s0.092-0.904,0.144-1.438c0.063-0.66,0.14-1.421,0.228-2.284
			c0.089-0.862,0.191-1.73,0.306-2.606s0.234-1.71,0.361-2.503s0.26-1.449,0.399-1.97c0.139-0.597,0.333-1.04,0.581-1.332
			c0.247-0.293,0.611-0.45,1.094-0.476c0.127,0,0.264,0.035,0.409,0.104c0.146,0.069,0.278,0.162,0.399,0.275
			c0.121,0.114,0.223,0.235,0.305,0.362s0.13,0.24,0.144,0.342c0.013,0.317,0.006,0.663-0.02,1.038
			c-0.025,0.374-0.069,0.762-0.134,1.16c-0.063,0.4-0.14,0.803-0.228,1.209c-0.089,0.405-0.179,0.793-0.267,1.161
			c-0.178,0.723-0.313,1.342-0.41,1.855c-0.095,0.513-0.174,1.011-0.237,1.493s-0.127,0.999-0.19,1.552
			c-0.063,0.552-0.146,1.234-0.247,2.046c0.216-0.482,0.403-0.895,0.561-1.237c0.159-0.343,0.303-0.645,0.429-0.904
			c0.127-0.26,0.245-0.492,0.353-0.694c0.107-0.203,0.225-0.416,0.352-0.638s0.267-0.466,0.419-0.732
			c0.153-0.268,0.343-0.59,0.571-0.971c0.888-1.472,1.84-2.673,2.854-3.606c1.016-0.932,1.992-1.602,2.932-2.008
			c1.065-0.508,1.941-0.78,2.626-0.818c0.331-0.013,0.725,0.007,1.181,0.057c0.457,0.051,0.895,0.146,1.313,0.286
			c0.42,0.14,0.778,0.319,1.076,0.542S255.193,32.045,255.193,32.361z"/>
	</g>
	<g>
		<g>
			<g>
				<path fill="#F1F2F2" d="M10.983,54.112c0,1.082-0.875,1.957-1.958,1.957H3.151c-1.082,0-1.958-0.875-1.958-1.957V22.783
					c0-1.083,0.876-1.958,1.958-1.958h5.875c1.082,0,1.958,0.875,1.958,1.958V54.112z M55.973,25.789
					c-0.039,0.967-0.443,2.867-3.87,2.867c-2.938,0-3.917,0-3.917,0c-0.543,0-0.979,0.44-0.979,0.979
					c0,0.541,0.437,0.979,0.979,0.979c0,0,0.856,0,3.793,0c2.938,0,3.323,2.437,3.134,3.61c-0.243,1.46-0.927,4.222-4.234,4.222
					c-3.305,0-4.651,0-4.651,0c-0.543,0-0.979,0.438-0.979,0.979c0,0.54,0.436,0.979,0.979,0.979c0,0,2.324,0,3.855,0
					c3.303,0,3.013,2.521,2.539,4.024c-0.624,1.979-1.005,3.809-5.17,3.809c-1.407,0-3.193,0-3.193,0
					c-0.542,0-0.979,0.438-0.979,0.979c0,0.54,0.437,0.979,0.979,0.979c0,0,1.358,0,3.071,0c2.141,0,2.241,2.026,2.019,2.754
					c-0.245,0.795-0.535,1.385-0.547,1.41c-0.592,1.067-1.544,1.71-3.563,1.71H34.533c-5.377,0-10.711-1.218-10.849-1.25
					c-8.133-1.875-8.563-2.02-9.071-2.164c0,0-1.658-0.279-1.658-1.726l-0.013-27.045c0-0.918,0.585-1.748,1.555-2.038
					c0.12-0.048,0.285-0.1,0.403-0.147c8.946-3.706,11.667-11.827,11.749-18.497c0.011-0.937,0.734-1.958,1.958-1.958
					c2.069,0,5.729,4.155,5.729,9.297c0,4.643-0.188,5.446-1.813,10.284c19.581,0,19.442,0.283,21.171,0.733
					c2.142,0.613,2.326,2.387,2.326,2.999C56.019,25.229,56,25.131,55.973,25.789z"/>
				<g>
					<g>
						<path fill="#F1F2F2" d="M94.774,46.362l-0.726,5.231h-19.09V18.115h6.396v28.248H94.774z"/>
						<path fill="#F1F2F2" d="M99.479,51.594V18.115h6.444v33.479H99.479z"/>
						<path fill="#F1F2F2" d="M113.775,51.594V18.115h6.395v33.479H113.775z M139.89,51.594h-7.607l-11.821-17.879l11.579-15.6
							h6.929L127.389,33.28L139.89,51.594z"/>
						<path fill="#F1F2F2" d="M149.875,22.863v9.35h10.757v4.75h-10.757v9.834h13.229v4.797H143.48V18.115h19.43l-0.679,4.748
							H149.875z"/>
					</g>
					<g>
						<path fill="#F1F2F2" d="M189.966,29.954c0,0.469-0.127,0.827-0.381,1.074c-0.253,0.248-0.546,0.467-0.875,0.657
							c-0.419,0.19-0.886,0.361-1.399,0.514s-1.04,0.289-1.579,0.409c-0.54,0.12-1.082,0.222-1.628,0.305
							c-0.545,0.082-1.065,0.148-1.561,0.199c-0.533,0.052-1.097,0.102-1.694,0.153c-0.596,0.05-1.173,0.104-1.732,0.162
							c-0.558,0.057-1.074,0.123-1.55,0.199c-0.477,0.075-0.86,0.172-1.152,0.285c-0.267,1.154-0.548,2.255-0.847,3.302
							s-0.549,2.09-0.752,3.131c-0.051,0.241-0.117,0.603-0.199,1.085c-0.083,0.482-0.162,0.986-0.238,1.514
							c-0.076,0.526-0.143,1.021-0.2,1.484c-0.057,0.463-0.085,0.796-0.085,0.999c0,0.521,0.082,0.91,0.247,1.17
							c0.165,0.261,0.346,0.471,0.543,0.628c0.196,0.159,0.377,0.309,0.542,0.448s0.247,0.349,0.247,0.628
							c0,0.178-0.085,0.349-0.257,0.514c-0.171,0.165-0.378,0.311-0.619,0.438c-0.24,0.127-0.498,0.226-0.771,0.296
							c-0.272,0.069-0.51,0.104-0.714,0.104c-0.368,0-0.697-0.102-0.989-0.305c-0.291-0.203-0.539-0.467-0.742-0.79
							c-0.203-0.324-0.362-0.695-0.476-1.114c-0.114-0.418-0.172-0.85-0.172-1.293c0-0.584,0.051-1.209,0.152-1.875
							c0.102-0.667,0.229-1.349,0.381-2.046c0.152-0.698,0.314-1.412,0.485-2.142s0.332-1.456,0.485-2.18
							c0.063-0.304,0.13-0.619,0.2-0.942c0.069-0.322,0.133-0.627,0.189-0.913c0.058-0.284,0.104-0.522,0.144-0.713
							c0.038-0.19,0.058-0.305,0.058-0.343c0-0.203-0.074-0.358-0.22-0.466c-0.146-0.108-0.32-0.162-0.524-0.162
							c-0.151,0-0.379,0.013-0.685,0.038c-0.305,0.024-0.625,0.057-0.961,0.095c-0.337,0.039-0.656,0.069-0.961,0.096
							c-0.305,0.025-0.526,0.038-0.666,0.038c-0.457,0-0.844-0.029-1.162-0.086c-0.316-0.057-0.573-0.161-0.771-0.314
							c-0.196-0.152-0.343-0.364-0.438-0.638c-0.095-0.272-0.143-0.625-0.143-1.056c0-0.178,0.082-0.317,0.247-0.419
							s0.365-0.175,0.6-0.219c0.234-0.045,0.485-0.07,0.752-0.076c0.267-0.007,0.501-0.01,0.705-0.01
							c0.164,0,0.434-0.016,0.808-0.047c0.375-0.032,0.769-0.067,1.181-0.104c0.412-0.039,0.806-0.074,1.18-0.104
							c0.375-0.032,0.645-0.049,0.81-0.049c0.076,0,0.164-0.006,0.266-0.019c0.103-0.013,0.207-0.048,0.314-0.104
							c0.108-0.058,0.206-0.152,0.295-0.286c0.089-0.133,0.165-0.32,0.229-0.561c0.089-0.394,0.196-0.854,0.323-1.381
							c0.127-0.526,0.258-1.066,0.391-1.617c0.134-0.553,0.264-1.085,0.391-1.599c0.127-0.515,0.234-0.955,0.323-1.324
							c0.114-0.354,0.212-0.735,0.295-1.141c0.082-0.406,0.158-0.813,0.229-1.219c0.069-0.406,0.149-0.799,0.238-1.18
							c0.088-0.38,0.202-0.729,0.342-1.046c0.279-0.66,0.729-0.99,1.352-0.99c0.939,0,1.408,0.521,1.408,1.561
							c0,0.647-0.14,1.389-0.419,2.227c-0.608,1.928-1.059,3.519-1.351,4.768c-0.292,1.25-0.438,2.091-0.438,2.521
							c0,0.47,0.234,0.704,0.704,0.704c0.57,0,1.106-0.009,1.607-0.027c0.502-0.02,1.01-0.052,1.523-0.096s1.056-0.099,1.627-0.161
							c0.571-0.064,1.212-0.134,1.922-0.211c0.508-0.063,0.993-0.139,1.456-0.228c0.464-0.089,0.892-0.174,1.285-0.257
							s0.742-0.161,1.048-0.238c0.304-0.076,0.558-0.127,0.761-0.151c0.139-0.013,0.275-0.032,0.409-0.058
							c0.133-0.025,0.247-0.029,0.342-0.01c0.096,0.02,0.172,0.069,0.229,0.152C189.938,29.626,189.966,29.763,189.966,29.954z"/>
						<path fill="#F1F2F2" d="M211.188,30.771c0,0.216-0.048,0.435-0.143,0.657c-0.096,0.222-0.219,0.438-0.371,0.646
							c-0.153,0.21-0.32,0.406-0.505,0.591c-0.184,0.184-0.371,0.333-0.561,0.446c-0.445,0.293-1.076,0.55-1.895,0.771
							c-0.819,0.222-1.83,0.333-3.036,0.333c-0.964,0-1.935-0.124-2.912-0.371c-0.977-0.248-1.916-0.657-2.817-1.228
							c0.292,0.443,0.48,0.869,0.563,1.275c0.082,0.405,0.123,0.889,0.123,1.446c0,1.002-0.254,2.067-0.761,3.196
							c-0.495,1.143-1.137,2.202-1.922,3.18c-0.787,0.977-1.618,1.788-2.494,2.436c-0.495,0.368-1.037,0.688-1.627,0.961
							c-0.59,0.272-1.209,0.495-1.856,0.666c-0.646,0.172-1.32,0.299-2.018,0.381s-1.402,0.124-2.112,0.124
							c-0.495,0-0.978-0.159-1.446-0.476c-0.47-0.317-0.889-0.705-1.257-1.161c-0.367-0.457-0.663-0.945-0.885-1.466
							s-0.333-0.989-0.333-1.409c0-1.026,0.137-2.014,0.409-2.959s0.641-1.859,1.104-2.74c0.463-0.882,0.998-1.745,1.608-2.588
							c0.608-0.844,1.255-1.685,1.94-2.522c0.381-0.47,0.815-0.93,1.304-1.379c0.488-0.451,0.999-0.854,1.532-1.21
							c0.533-0.354,1.072-0.644,1.618-0.866c0.546-0.222,1.065-0.332,1.561-0.332c0.406,0,0.755,0.057,1.047,0.171
							s0.567,0.275,0.828,0.485c0.26,0.209,0.526,0.473,0.8,0.79c0.272,0.317,0.586,0.673,0.941,1.066
							c0.114,0.113,0.429,0.281,0.942,0.504c0.514,0.222,1.123,0.438,1.827,0.646c0.704,0.21,1.443,0.394,2.218,0.553
							c0.774,0.158,1.478,0.237,2.112,0.237s1.218-0.022,1.751-0.065c0.533-0.045,1.05-0.119,1.551-0.22
							c0.502-0.102,1-0.241,1.494-0.419c0.495-0.178,1.028-0.394,1.599-0.646C211.163,30.467,211.188,30.632,211.188,30.771z
							 M196.97,35.34c0.013-0.355-0.012-0.759-0.075-1.209c-0.063-0.451-0.175-0.875-0.333-1.275
							c-0.159-0.399-0.368-0.726-0.628-0.979c-0.261-0.254-0.582-0.355-0.961-0.306c-0.585-0.228-1.066-0.469-1.447-0.723
							s-0.672-0.381-0.876-0.381c-0.151,0-0.316,0.048-0.495,0.143c-0.177,0.096-0.361,0.226-0.551,0.391
							c-0.191,0.165-0.384,0.358-0.581,0.58c-0.196,0.223-0.39,0.454-0.581,0.695c-0.38,0.495-0.732,0.945-1.056,1.352
							c-0.324,0.406-0.628,0.809-0.914,1.208c-0.285,0.4-0.562,0.819-0.827,1.257c-0.267,0.438-0.533,0.929-0.8,1.474
							c-0.114,0.229-0.216,0.502-0.304,0.819c-0.09,0.316-0.166,0.644-0.229,0.98c-0.063,0.336-0.111,0.672-0.143,1.008
							c-0.031,0.337-0.048,0.638-0.048,0.904c0,0.165,0.057,0.364,0.172,0.6c0.114,0.234,0.263,0.464,0.447,0.686
							c0.184,0.222,0.394,0.409,0.628,0.561c0.234,0.152,0.466,0.229,0.694,0.229c0.647,0,1.2-0.028,1.656-0.085
							s0.879-0.159,1.266-0.305c0.388-0.146,0.776-0.347,1.17-0.601c0.394-0.252,0.851-0.583,1.371-0.989
							c0.254-0.189,0.504-0.412,0.752-0.666c0.247-0.253,0.491-0.523,0.732-0.809s0.469-0.577,0.686-0.876
							c0.216-0.298,0.418-0.593,0.609-0.884c0.127-0.191,0.234-0.426,0.323-0.705s0.158-0.558,0.21-0.838
							c0.05-0.278,0.085-0.532,0.104-0.76C196.961,35.606,196.97,35.441,196.97,35.34z"/>
						<path fill="#F1F2F2" d="M240.746,31.323c0,0.483-0.12,1.031-0.361,1.646s-0.57,1.19-0.989,1.723
							c-0.532,0.686-1.132,1.364-1.799,2.036c-0.666,0.672-1.36,1.316-2.084,1.932c-0.723,0.615-1.46,1.187-2.208,1.713
							s-1.476,0.984-2.179,1.37c-0.704,0.387-1.367,0.692-1.989,0.914s-1.167,0.333-1.637,0.333c-0.597,0-1.117-0.102-1.561-0.305
							c-0.445-0.203-0.828-0.479-1.152-0.827c-0.323-0.35-0.593-0.759-0.809-1.229s-0.402-0.964-0.562-1.484
							c-0.159-0.52-0.288-1.057-0.391-1.608c-0.101-0.552-0.196-1.087-0.284-1.607c-0.318,0.481-0.677,1.023-1.076,1.626
							s-0.818,1.215-1.257,1.837c-0.437,0.622-0.881,1.222-1.332,1.799c-0.45,0.577-0.872,1.082-1.266,1.514
							c-0.443,0.47-0.929,0.919-1.456,1.352c-0.526,0.431-1.084,0.809-1.674,1.133c-0.591,0.322-1.21,0.583-1.856,0.779
							c-0.647,0.197-1.313,0.295-1.998,0.295c-1.003,0-1.79-0.412-2.36-1.236c-0.559-0.825-0.837-1.777-0.837-2.855
							c0-0.508,0.04-1.038,0.123-1.589c0.082-0.553,0.178-1.101,0.285-1.646c0.107-0.547,0.212-1.082,0.314-1.608
							c0.102-0.527,0.171-1.024,0.209-1.493c0.013-0.19,0.022-0.428,0.029-0.714c0.006-0.286,0.009-0.619,0.009-0.999
							c0-0.343,0-0.657,0-0.942s0.007-0.559,0.02-0.818c0.012-0.261,0.031-0.518,0.057-0.771s0.063-0.52,0.114-0.799
							c0.076-0.432,0.247-0.807,0.514-1.123c0.267-0.317,0.685-0.476,1.257-0.476c1.167,0,1.751,0.805,1.751,2.417
							c0,0.279-0.029,0.586-0.086,0.923c-0.057,0.336-0.124,0.685-0.2,1.047c-0.075,0.361-0.155,0.729-0.237,1.104
							s-0.156,0.739-0.219,1.096c-0.127,0.494-0.254,0.988-0.381,1.483s-0.244,0.977-0.352,1.446
							c-0.108,0.469-0.194,0.923-0.258,1.36s-0.096,0.841-0.096,1.209c0,0.19,0.025,0.403,0.077,0.638
							c0.05,0.234,0.127,0.456,0.228,0.666c0.102,0.209,0.238,0.384,0.41,0.523c0.171,0.14,0.371,0.21,0.6,0.21
							c0.672,0,1.351-0.188,2.035-0.563c0.687-0.374,1.343-0.837,1.972-1.389c0.628-0.553,1.218-1.142,1.769-1.771
							c0.553-0.628,1.038-1.203,1.457-1.722c0.405-0.521,0.809-1.137,1.208-1.846c0.4-0.711,0.781-1.45,1.143-2.219
							c0.361-0.767,0.707-1.531,1.037-2.293c0.33-0.761,0.628-1.446,0.895-2.055c0.596-1.396,1.129-2.095,1.599-2.095
							c0.343,0,0.571,0.055,0.686,0.162s0.171,0.326,0.171,0.657c0,0.254-0.028,0.596-0.085,1.027
							c-0.058,0.432-0.124,0.882-0.2,1.352s-0.143,0.92-0.2,1.352c-0.057,0.431-0.085,0.768-0.085,1.009
							c0,0.216,0.003,0.479,0.01,0.789c0.006,0.312,0.016,0.632,0.028,0.961c0.012,0.331,0.034,0.657,0.066,0.981
							c0.031,0.323,0.072,0.6,0.123,0.827c0.052,0.267,0.14,0.593,0.267,0.979c0.127,0.388,0.289,0.765,0.485,1.133
							s0.435,0.682,0.714,0.941c0.279,0.261,0.603,0.391,0.971,0.391c0.686,0,1.463-0.202,2.332-0.609
							c0.869-0.406,1.76-0.929,2.674-1.569s1.82-1.357,2.722-2.15c0.901-0.794,1.738-1.576,2.513-2.351
							c0.304-0.305,0.612-0.609,0.923-0.914c0.312-0.304,0.597-0.558,0.856-0.762c0.26-0.202,0.47-0.336,0.628-0.398
							C240.668,31.107,240.746,31.159,240.746,31.323z"/>
						<path fill="#F1F2F2" d="M255.193,31.361c0,0.077-0.007,0.188-0.02,0.333c-0.013,0.146-0.043,0.292-0.095,0.438
							c-0.051,0.146-0.11,0.276-0.181,0.391c-0.069,0.113-0.161,0.17-0.275,0.17c-0.077,0-0.204-0.003-0.381-0.01
							c-0.179-0.005-0.365-0.015-0.563-0.027c-0.196-0.013-0.384-0.022-0.561-0.028c-0.178-0.007-0.305-0.01-0.381-0.01
							c-2.424,0.152-4.441,1.041-6.053,2.665c-1.587,1.585-2.957,3.704-4.111,6.355c-0.216,0.546-0.429,1.11-0.638,1.694
							s-0.409,1.199-0.6,1.847c-0.101,0.354-0.175,0.668-0.219,0.941s-0.118,0.563-0.219,0.866c-0.026,0.102-0.134,0.2-0.323,0.295
							c-0.191,0.096-0.403,0.181-0.638,0.258c-0.235,0.075-0.46,0.14-0.677,0.189c-0.215,0.051-0.361,0.077-0.438,0.077
							c-0.875,0.05-1.37-0.857-1.484-2.723c-0.038-0.507-0.054-0.968-0.048-1.38c0.007-0.412,0.022-0.813,0.048-1.199
							c0.025-0.388,0.06-0.793,0.104-1.218s0.092-0.904,0.144-1.438c0.063-0.66,0.14-1.421,0.228-2.284
							c0.089-0.862,0.191-1.73,0.306-2.606s0.234-1.71,0.361-2.503s0.26-1.449,0.399-1.97c0.139-0.597,0.333-1.04,0.581-1.332
							c0.247-0.293,0.611-0.45,1.094-0.476c0.127,0,0.264,0.035,0.409,0.104c0.146,0.069,0.278,0.162,0.399,0.275
							c0.121,0.114,0.223,0.235,0.305,0.362s0.13,0.24,0.144,0.342c0.013,0.317,0.006,0.663-0.02,1.038
							c-0.025,0.374-0.069,0.762-0.134,1.16c-0.063,0.4-0.14,0.803-0.228,1.209c-0.089,0.405-0.179,0.793-0.267,1.161
							c-0.178,0.723-0.313,1.342-0.41,1.855c-0.095,0.513-0.174,1.011-0.237,1.493s-0.127,0.999-0.19,1.552
							c-0.063,0.552-0.146,1.234-0.247,2.046c0.216-0.482,0.403-0.895,0.561-1.237c0.159-0.343,0.303-0.645,0.429-0.904
							c0.127-0.26,0.245-0.492,0.353-0.694c0.107-0.203,0.225-0.416,0.352-0.638s0.267-0.466,0.419-0.732
							c0.153-0.268,0.343-0.59,0.571-0.971c0.888-1.472,1.84-2.673,2.854-3.606c1.016-0.932,1.992-1.602,2.932-2.008
							c1.065-0.508,1.941-0.78,2.626-0.818c0.331-0.013,0.725,0.007,1.181,0.057c0.457,0.051,0.895,0.146,1.313,0.286
							c0.42,0.14,0.778,0.319,1.076,0.542S255.193,31.045,255.193,31.361z"/>
					</g>
				</g>
			</g>
		</g>
	</g>
</g>
</svg>
