<?xml version="1.0" encoding="utf-8"?>
<!-- Generator: Adobe Illustrator 16.0.3, SVG Export Plug-In . SVG Version: 6.00 Build 0)  -->
<!DOCTYPE svg PUBLIC "-//W3C//DTD SVG 1.1//EN" "http://www.w3.org/Graphics/SVG/1.1/DTD/svg11.dtd">
<svg version="1.1" id="Layer_1" xmlns="http://www.w3.org/2000/svg" xmlns:xlink="http://www.w3.org/1999/xlink" x="0px" y="0px"
	 width="128px" height="128px" viewBox="38.388 46.5 128 128" enable-background="new 38.388 46.5 128 128" xml:space="preserve">
<linearGradient id="SVGID_1_" gradientUnits="userSpaceOnUse" x1="102.3884" y1="50.8916" x2="102.3884" y2="171.2744">
	<stop  offset="0" style="stop-color:#ED1555"/>
	<stop  offset="1" style="stop-color:#9C2242"/>
</linearGradient>
<rect x="38.388" y="46.5" fill="url(#SVGID_1_)" width="128" height="128"/>
<g>
	<g>
		<g>
			<g>
				<linearGradient id="SVGID_2_" gradientUnits="userSpaceOnUse" x1="102.3884" y1="76.9355" x2="102.3884" y2="143.7101">
					<stop  offset="0" style="stop-color:#2A424B"/>
					<stop  offset="1" style="stop-color:#0B232A"/>
				</linearGradient>
				<polygon fill="url(#SVGID_2_)" points="77.81,146.5 66.888,135.574 126.963,75.5 137.888,86.422 				"/>
				<linearGradient id="SVGID_3_" gradientUnits="userSpaceOnUse" x1="102.3884" y1="76.9355" x2="102.3884" y2="143.7101">
					<stop  offset="0" style="stop-color:#2A424B"/>
					<stop  offset="1" style="stop-color:#0B232A"/>
				</linearGradient>
				<polygon fill="url(#SVGID_3_)" points="77.81,146.5 66.888,135.574 126.963,75.5 137.888,86.422 				"/>
			</g>
			<g>
				<linearGradient id="SVGID_4_" gradientUnits="userSpaceOnUse" x1="102.3884" y1="76.9355" x2="102.3884" y2="143.7101">
					<stop  offset="0" style="stop-color:#2A424B"/>
					<stop  offset="1" style="stop-color:#0B232A"/>
				</linearGradient>
				<polygon fill="url(#SVGID_4_)" points="77.81,145.5 66.888,134.574 126.963,74.5 137.888,85.422 				"/>
				<linearGradient id="SVGID_5_" gradientUnits="userSpaceOnUse" x1="102.3884" y1="76.9355" x2="102.3884" y2="143.7101">
					<stop  offset="0" style="stop-color:#2A424B"/>
					<stop  offset="1" style="stop-color:#0B232A"/>
				</linearGradient>
				<polygon fill="url(#SVGID_5_)" points="77.81,145.5 66.888,134.574 126.963,74.5 137.888,85.422 				"/>
			</g>
		</g>
		<g>
			<g>
				<linearGradient id="SVGID_6_" gradientUnits="userSpaceOnUse" x1="102.3884" y1="76.9355" x2="102.3884" y2="143.7101">
					<stop  offset="0" style="stop-color:#2A424B"/>
					<stop  offset="1" style="stop-color:#0B232A"/>
				</linearGradient>
				<polygon fill="url(#SVGID_6_)" points="66.888,86.422 77.81,75.5 137.888,135.574 126.967,146.5 				"/>
				<linearGradient id="SVGID_7_" gradientUnits="userSpaceOnUse" x1="102.3884" y1="76.9355" x2="102.3884" y2="143.7101">
					<stop  offset="0" style="stop-color:#2A424B"/>
					<stop  offset="1" style="stop-color:#0B232A"/>
				</linearGradient>
				<polygon fill="url(#SVGID_7_)" points="66.888,86.422 77.81,75.5 137.888,135.574 126.967,146.5 				"/>
			</g>
			<g>
				<linearGradient id="SVGID_8_" gradientUnits="userSpaceOnUse" x1="102.3884" y1="76.9355" x2="102.3884" y2="143.7101">
					<stop  offset="0" style="stop-color:#2A424B"/>
					<stop  offset="1" style="stop-color:#0B232A"/>
				</linearGradient>
				<polygon fill="url(#SVGID_8_)" points="66.888,85.422 77.81,74.5 137.888,134.574 126.967,145.5 				"/>
				<linearGradient id="SVGID_9_" gradientUnits="userSpaceOnUse" x1="102.3884" y1="76.9355" x2="102.3884" y2="143.7101">
					<stop  offset="0" style="stop-color:#2A424B"/>
					<stop  offset="1" style="stop-color:#0B232A"/>
				</linearGradient>
				<polygon fill="url(#SVGID_9_)" points="66.888,85.422 77.81,74.5 137.888,134.574 126.967,145.5 				"/>
			</g>
		</g>
	</g>
	<g>
		<g>
			<g opacity="0.35">
				
					<rect x="94.662" y="68.521" transform="matrix(0.707 0.7072 -0.7072 0.707 108.5041 -39.8859)" width="15.449" height="84.958"/>
			</g>
			<g>
				
					<linearGradient id="SVGID_10_" gradientUnits="userSpaceOnUse" x1="-112.926" y1="-309.4849" x2="-27.9612" y2="-309.4849" gradientTransform="matrix(0.7071 -0.7071 0.7071 0.7071 371.035 279.0249)">
					<stop  offset="0" style="stop-color:#F1F2F2"/>
					<stop  offset="1" style="stop-color:#BCBEC0"/>
				</linearGradient>
				<polygon fill="url(#SVGID_10_)" points="77.81,145.5 66.888,134.574 126.963,74.5 137.888,85.422 				"/>
			</g>
		</g>
		<g>
			<g opacity="0.35">
				
					<rect x="94.665" y="68.518" transform="matrix(-0.7071 0.7071 -0.7071 -0.7071 253.2755 117.086)" width="15.446" height="84.961"/>
			</g>
			<g>
				
					<linearGradient id="SVGID_11_" gradientUnits="userSpaceOnUse" x1="467.615" y1="289.1738" x2="552.5789" y2="289.1738" gradientTransform="matrix(0.7071 0.7071 -0.7071 0.7071 -53.8254 -455.1659)">
					<stop  offset="0" style="stop-color:#F1F2F2"/>
					<stop  offset="1" style="stop-color:#BCBEC0"/>
				</linearGradient>
				<polygon fill="url(#SVGID_11_)" points="66.888,85.422 77.81,74.5 137.888,134.574 126.967,145.5 				"/>
			</g>
		</g>
	</g>
</g>
</svg>
