<?xml version="1.0" encoding="utf-8"?>
<!-- Generator: Adobe Illustrator 16.0.3, SVG Export Plug-In . SVG Version: 6.00 Build 0)  -->
<!DOCTYPE svg PUBLIC "-//W3C//DTD SVG 1.1//EN" "http://www.w3.org/Graphics/SVG/1.1/DTD/svg11.dtd">
<svg version="1.1" id="Layer_1" xmlns="http://www.w3.org/2000/svg" xmlns:xlink="http://www.w3.org/1999/xlink" x="0px" y="0px"
	 width="128px" height="128px" viewBox="38.388 46.5 128 128" enable-background="new 38.388 46.5 128 128" xml:space="preserve">
<linearGradient id="SVGID_1_" gradientUnits="userSpaceOnUse" x1="102.3884" y1="50.8916" x2="102.3884" y2="171.2744">
	<stop  offset="0" style="stop-color:#ED1555"/>
	<stop  offset="1" style="stop-color:#9C2242"/>
</linearGradient>
<rect x="38.388" y="46.5" fill="url(#SVGID_1_)" width="128" height="128"/>
<g>
	<g opacity="0.35">
		<path d="M111.389,129.19c0,0,6.985-4,8.816-4.964c1.823-0.963,3.713-1.205,4.86-0.507c1.738,1.066,16.327,10.771,17.559,11.632
			c1.228,0.86,1.819,3.316,0.132,5.729c-1.684,2.408-9.444,11.934-12.735,11.831c-3.294-0.107-16.988-0.404-42.813-26.239
			c-25.819-25.823-26.128-39.522-26.231-42.818c-0.106-3.292,9.419-11.055,11.827-12.738c2.412-1.683,4.875-1.05,5.731,0.134
			c0.971,1.35,10.566,15.892,11.622,17.559c0.724,1.14,0.456,3.039-0.508,4.864c-0.959,1.829-4.959,8.816-4.959,8.816
			s2.819,4.809,12.356,14.342C106.584,126.366,111.389,129.19,111.389,129.19z"/>
	</g>
	<g>
		<linearGradient id="SVGID_2_" gradientUnits="userSpaceOnUse" x1="102.3884" y1="98.5791" x2="102.3884" y2="151.2938">
			<stop  offset="0" style="stop-color:#FFFFFF"/>
			<stop  offset="1" style="stop-color:#D1D3D4"/>
		</linearGradient>
		<path fill="url(#SVGID_2_)" d="M111.389,128.19c0,0,6.985-4,8.816-4.964c1.823-0.963,3.713-1.205,4.86-0.507
			c1.738,1.066,16.327,10.771,17.559,11.632c1.228,0.86,1.819,3.316,0.132,5.729c-1.684,2.408-9.444,11.934-12.735,11.831
			c-3.294-0.107-16.988-0.404-42.813-26.239C61.389,99.849,61.081,86.149,60.977,82.854c-0.106-3.292,9.419-11.055,11.827-12.738
			c2.412-1.683,4.875-1.05,5.731,0.134c0.971,1.35,10.566,15.892,11.622,17.559c0.724,1.14,0.456,3.039-0.508,4.864
			c-0.959,1.829-4.959,8.816-4.959,8.816s2.819,4.809,12.356,14.342C106.584,125.366,111.389,128.19,111.389,128.19z"/>
	</g>
</g>
</svg>
