<?xml version="1.0" encoding="utf-8"?>
<!-- Generator: Adobe Illustrator 16.0.3, SVG Export Plug-In . SVG Version: 6.00 Build 0)  -->
<!DOCTYPE svg PUBLIC "-//W3C//DTD SVG 1.1//EN" "http://www.w3.org/Graphics/SVG/1.1/DTD/svg11.dtd">
<svg version="1.1" id="Layer_1" xmlns="http://www.w3.org/2000/svg" xmlns:xlink="http://www.w3.org/1999/xlink" x="0px" y="0px"
	 width="128px" height="128px" viewBox="0 0 128 128" enable-background="new 0 0 128 128" xml:space="preserve">
<linearGradient id="SVGID_1_" gradientUnits="userSpaceOnUse" x1="63.9995" y1="0" x2="63.9995" y2="128.0005">
	<stop  offset="0" style="stop-color:#ED1555"/>
	<stop  offset="1" style="stop-color:#9C2242"/>
</linearGradient>
<path fill="url(#SVGID_1_)" d="M64.003,0C28.65,0,0,28.65,0,63.997C0,99.344,28.653,128,64.003,128
	C99.344,128,128,99.344,128,63.997C128,28.65,99.341,0,64.003,0z"/>
<g>
	<g opacity="0.35">
		<path d="M92.713,67.749c-2.68-2.891-6.082-4.795-10.512-5.728v-0.388c2.215-1.286,5.35-3.301,7.1-6.038
			c1.762-2.747,2.469-5.871,2.469-9.383c0-3.024-0.641-5.69-1.904-8.019c-1.273-2.316-3.199-4.173-5.779-5.55
			c-2.383-1.293-4.932-2.135-7.656-2.546c-2.727-0.397-6.723-0.598-12.008-0.598H39v72h28.803c4.996,0,9.105-0.478,12.35-1.387
			c3.234-0.892,6.201-2.433,8.906-4.564c2.291-1.771,4.109-4.01,5.459-6.709c1.354-2.717,2.119-5.848,2.119-9.427
			C96.637,74.515,95.383,70.629,92.713,67.749z M56.723,42.792h1.507c3.225,0,5.65-0.023,7.278,0.023
			c1.631,0.053,3.037,0.287,4.232,0.795c1.25,0.555,2.17,1.44,2.768,2.669c0.598,1.22,0.898,2.426,0.898,3.589
			c0,1.574-0.277,2.98-0.818,4.177c-0.555,1.196-1.551,2.172-3.004,2.847c-1.316,0.622-2.59,1.053-3.832,1.12
			c-1.24,0.066-3.413,0.287-6.503,0.287h-2.526V42.792z M76.818,83.73c-0.766,1.377-1.961,2.402-3.6,3.117
			c-1.873,0.806-3.711,1.227-5.506,1.294c-1.805,0.057-5.063,0.066-9.771,0.066h-1.22V70.485h3.592c3.221,0,5.791-0.104,7.708-0.057
			c1.914,0.057,3.422,0.163,4.518,0.574c1.795,0.642,3.148,1.598,4.057,2.851c0.908,1.263,1.35,2.997,1.35,5.216
			C77.947,80.811,77.57,82.371,76.818,83.73z"/>
	</g>
	<g>
		<linearGradient id="SVGID_2_" gradientUnits="userSpaceOnUse" x1="66.8184" y1="28.5" x2="66.8184" y2="100.5005">
			<stop  offset="0" style="stop-color:#FFFFFF"/>
			<stop  offset="1" style="stop-color:#D1D3D4"/>
		</linearGradient>
		<path fill="url(#SVGID_2_)" d="M91.713,66.749c-2.68-2.891-6.082-4.795-10.512-5.728v-0.388c2.215-1.286,5.35-3.301,7.1-6.038
			c1.762-2.747,2.469-5.871,2.469-9.383c0-3.024-0.641-5.69-1.904-8.019c-1.273-2.316-3.199-4.173-5.779-5.55
			c-2.383-1.293-4.932-2.135-7.656-2.546c-2.727-0.397-6.723-0.598-12.008-0.598H38v72h28.803c4.996,0,9.105-0.478,12.35-1.387
			c3.234-0.892,6.201-2.433,8.906-4.564c2.291-1.771,4.109-4.01,5.459-6.709c1.354-2.717,2.119-5.848,2.119-9.427
			C95.637,73.515,94.383,69.629,91.713,66.749z M55.723,41.792h1.507c3.225,0,5.65-0.023,7.278,0.023
			c1.631,0.053,3.037,0.287,4.232,0.795c1.25,0.555,2.17,1.44,2.768,2.669c0.598,1.22,0.898,2.426,0.898,3.589
			c0,1.574-0.277,2.98-0.818,4.177c-0.555,1.196-1.551,2.172-3.004,2.847c-1.316,0.622-2.59,1.053-3.832,1.12
			c-1.241,0.066-3.413,0.287-6.503,0.287h-2.526V41.792z M75.818,82.73c-0.766,1.377-1.961,2.402-3.6,3.117
			c-1.873,0.806-3.711,1.227-5.506,1.294c-1.805,0.057-5.063,0.066-9.771,0.066h-1.22V69.485h3.592c3.221,0,5.791-0.104,7.708-0.057
			c1.914,0.057,3.422,0.163,4.518,0.574c1.795,0.642,3.148,1.598,4.057,2.851c0.908,1.263,1.35,2.997,1.35,5.216
			C76.947,79.811,76.57,81.371,75.818,82.73z"/>
	</g>
</g>
</svg>
