<?xml version="1.0" encoding="utf-8"?>
<!-- Generator: Adobe Illustrator 16.0.3, SVG Export Plug-In . SVG Version: 6.00 Build 0)  -->
<!DOCTYPE svg PUBLIC "-//W3C//DTD SVG 1.1//EN" "http://www.w3.org/Graphics/SVG/1.1/DTD/svg11.dtd">
<svg version="1.1" id="Layer_1" xmlns="http://www.w3.org/2000/svg" xmlns:xlink="http://www.w3.org/1999/xlink" x="0px" y="0px"
	 width="113.777px" height="128px" viewBox="0 0 113.777 128" enable-background="new 0 0 113.777 128" xml:space="preserve">
<g>
	<linearGradient id="SVGID_1_" gradientUnits="userSpaceOnUse" x1="56.8882" y1="0" x2="56.8882" y2="128">
		<stop  offset="0" style="stop-color:#ED1555"/>
		<stop  offset="1" style="stop-color:#9C2242"/>
	</linearGradient>
	<path fill="#2a3a4b" d="M92.443,85.333c-4.885,0-9.375,1.663-12.971,4.426L42.358,67.491c0.186-1.137,0.308-2.3,0.308-3.491
		s-0.123-2.354-0.308-3.491l37.114-22.271c3.596,2.771,8.086,4.43,12.971,4.43c11.781,0,21.334-9.555,21.334-21.334
		S104.225,0,92.443,0C80.665,0,71.11,9.554,71.11,21.333c0,1.192,0.123,2.354,0.313,3.492L34.309,47.092
		c-3.598-2.763-8.085-4.425-12.975-4.425C9.552,42.667,0,52.221,0,64s9.552,21.333,21.333,21.333c4.89,0,9.377-1.658,12.975-4.429
		l37.114,22.271c-0.189,1.138-0.313,2.3-0.313,3.492c0,11.779,9.555,21.333,21.333,21.333c11.781,0,21.334-9.554,21.334-21.333
		S104.225,85.333,92.443,85.333z"/>
</g>
</svg>
