<?xml version="1.0" encoding="utf-8"?>
<!-- Generator: Adobe Illustrator 16.0.3, SVG Export Plug-In . SVG Version: 6.00 Build 0)  -->
<!DOCTYPE svg PUBLIC "-//W3C//DTD SVG 1.1//EN" "http://www.w3.org/Graphics/SVG/1.1/DTD/svg11.dtd">
<svg version="1.1" id="Layer_1" xmlns="http://www.w3.org/2000/svg" xmlns:xlink="http://www.w3.org/1999/xlink" x="0px" y="0px"
	 width="256px" height="65.286px" viewBox="-19 44.245 256 65.286" enable-background="new -19 44.245 256 65.286"
	 xml:space="preserve">
<g>
	<g opacity="0.35">
		<path d="M-9.133,98.528c0,1.09-0.882,1.973-1.973,1.973h-5.92c-1.09,0-1.974-0.883-1.974-1.973V66.953
			c0-1.092,0.883-1.974,1.974-1.974h5.92c1.091,0,1.973,0.882,1.973,1.974V98.528z M36.211,69.982c-0.039,0.975-0.447,2.89-3.9,2.89
			c-2.961,0-3.947,0-3.947,0c-0.547,0-0.987,0.444-0.987,0.987c0,0.545,0.44,0.987,0.987,0.987c0,0,0.863,0,3.823,0
			c2.96,0,3.35,2.455,3.159,3.639c-0.245,1.472-0.935,4.255-4.268,4.255c-3.331,0-4.688,0-4.688,0c-0.547,0-0.987,0.44-0.987,0.986
			c0,0.544,0.439,0.986,0.987,0.986c0,0,2.343,0,3.886,0c3.33,0,3.037,2.541,2.559,4.056c-0.628,1.994-1.013,3.839-5.211,3.839
			c-1.418,0-3.219,0-3.219,0c-0.546,0-0.986,0.441-0.986,0.987c0,0.544,0.44,0.986,0.986,0.986c0,0,1.369,0,3.096,0
			c2.158,0,2.258,2.042,2.035,2.775c-0.247,0.801-0.54,1.396-0.552,1.421c-0.597,1.076-1.557,1.724-3.592,1.724H14.603
			c-5.419,0-10.796-1.228-10.935-1.26c-8.197-1.89-8.63-2.035-9.143-2.181c0,0-1.67-0.282-1.67-1.739l-0.014-27.258
			c0-0.926,0.59-1.762,1.567-2.055c0.121-0.049,0.287-0.101,0.406-0.148C3.831,62.125,6.574,53.94,6.655,47.218
			c0.011-0.945,0.74-1.974,1.973-1.974c2.085,0,5.774,4.188,5.774,9.37c0,4.679-0.189,5.489-1.827,10.365
			c19.735,0,19.596,0.285,21.338,0.739c2.158,0.618,2.344,2.405,2.344,3.022C36.257,69.418,36.238,69.319,36.211,69.982z"/>
		<path d="M75.317,90.718l-0.732,5.272h-19.24V62.248h6.446v28.47H75.317z"/>
		<path d="M80.06,95.99V62.248h6.494V95.99H80.06z"/>
		<path d="M94.468,95.99V62.248h6.445V95.99H94.468z M120.788,95.99h-7.667l-11.914-18.02l11.67-15.723h6.984l-11.672,15.285
			L120.788,95.99z"/>
		<path d="M130.853,67.033v9.424h10.842v4.787h-10.842v9.911h13.333v4.835h-19.778V62.248h19.583l-0.685,4.786H130.853z"/>
		<text transform="matrix(1 0 0 1 147.9707 91.0781)" font-family="'SegoeScript'" font-size="39.2872">tour</text>
	</g>
	<g>
		<g>
			<g>
				<path fill="#F1F2F2" d="M-9.133,97.528c0,1.09-0.882,1.973-1.973,1.973h-5.92c-1.09,0-1.974-0.883-1.974-1.973V65.953
					c0-1.092,0.883-1.974,1.974-1.974h5.92c1.091,0,1.973,0.882,1.973,1.974V97.528z M36.211,68.982
					c-0.039,0.975-0.447,2.89-3.9,2.89c-2.961,0-3.947,0-3.947,0c-0.547,0-0.987,0.444-0.987,0.987c0,0.545,0.44,0.987,0.987,0.987
					c0,0,0.863,0,3.823,0c2.96,0,3.35,2.455,3.159,3.639c-0.245,1.472-0.935,4.255-4.268,4.255c-3.331,0-4.688,0-4.688,0
					c-0.547,0-0.987,0.44-0.987,0.986c0,0.544,0.439,0.986,0.987,0.986c0,0,2.343,0,3.886,0c3.33,0,3.037,2.541,2.559,4.056
					c-0.628,1.994-1.013,3.839-5.211,3.839c-1.418,0-3.219,0-3.219,0c-0.546,0-0.986,0.441-0.986,0.987
					c0,0.544,0.44,0.986,0.986,0.986c0,0,1.369,0,3.096,0c2.158,0,2.258,2.042,2.035,2.775c-0.247,0.801-0.54,1.396-0.552,1.421
					c-0.597,1.076-1.557,1.724-3.592,1.724H14.603c-5.419,0-10.796-1.228-10.935-1.26c-8.197-1.89-8.63-2.035-9.143-2.181
					c0,0-1.67-0.282-1.67-1.739l-0.014-27.258c0-0.926,0.59-1.762,1.567-2.055c0.121-0.049,0.287-0.101,0.406-0.148
					C3.831,61.125,6.574,52.94,6.655,46.218c0.011-0.945,0.74-1.974,1.973-1.974c2.085,0,5.774,4.188,5.774,9.37
					c0,4.679-0.189,5.489-1.827,10.365c19.735,0,19.596,0.285,21.338,0.739c2.158,0.618,2.344,2.405,2.344,3.022
					C36.257,68.418,36.238,68.319,36.211,68.982z"/>
				<g>
					<g>
						<path fill="#F1F2F2" d="M75.317,89.718l-0.732,5.272h-19.24V61.248h6.446v28.47H75.317z"/>
						<path fill="#F1F2F2" d="M80.06,94.99V61.248h6.494V94.99H80.06z"/>
						<path fill="#F1F2F2" d="M94.468,94.99V61.248h6.445V94.99H94.468z M120.788,94.99h-7.667l-11.914-18.02l11.67-15.723h6.984
							l-11.672,15.285L120.788,94.99z"/>
						<path fill="#F1F2F2" d="M130.853,66.033v9.424h10.842v4.787h-10.842v9.911h13.333v4.835h-19.778V61.248h19.583l-0.685,4.786
							H130.853z"/>
					</g>
					<text transform="matrix(1 0 0 1 147.9707 90.0781)" fill="#F1F2F2" font-family="'SegoeScript'" font-size="39.2872">tour</text>
				</g>
			</g>
		</g>
	</g>
</g>
</svg>
