<?xml version="1.0" encoding="utf-8"?>
<!-- Generator: Adobe Illustrator 16.0.3, SVG Export Plug-In . SVG Version: 6.00 Build 0)  -->
<!DOCTYPE svg PUBLIC "-//W3C//DTD SVG 1.1//EN" "http://www.w3.org/Graphics/SVG/1.1/DTD/svg11.dtd">
<svg version="1.1" id="Layer_1" xmlns="http://www.w3.org/2000/svg" xmlns:xlink="http://www.w3.org/1999/xlink" x="0px" y="0px"
	 width="127.999px" height="128.001px" viewBox="0 0 127.999 128.001" enable-background="new 0 0 127.999 128.001"
	 xml:space="preserve">
<path fill="#2A3A4B" d="M64,0c11.61,0,22.317,2.86,32.125,8.582c9.808,5.726,17.567,13.485,23.293,23.293
	C125.14,41.683,128,52.39,128,64s-2.86,22.317-8.582,32.125c-5.726,9.808-13.485,17.567-23.293,23.293
	C86.317,125.14,75.61,128,64,128s-22.317-2.86-32.125-8.582c-9.808-5.726-17.567-13.485-23.293-23.293C2.86,86.317,0,75.61,0,64
	s2.86-22.317,8.582-32.125c5.726-9.808,13.485-17.567,23.293-23.293C41.683,2.86,52.39,0,64,0z M86.832,43.418
	c-0.111,0.053-0.375,0.317-0.789,0.789c-0.418,0.476-0.793,0.735-1.125,0.793c0.111,0,0.236-0.14,0.375-0.418
	c0.14-0.274,0.274-0.582,0.414-0.914c0.139-0.336,0.235-0.528,0.293-0.586c0.332-0.39,0.942-0.803,1.832-1.25
	c0.778-0.332,2.226-0.664,4.336-1c1.89-0.442,3.303-0.14,4.25,0.918c-0.11-0.11,0.149-0.471,0.789-1.082
	c0.639-0.61,1.043-0.947,1.211-1c0.164-0.11,0.582-0.235,1.25-0.375c0.664-0.139,1.082-0.351,1.25-0.625l0.164-1.836
	c-0.664,0.058-1.149-0.14-1.457-0.582s-0.485-1.029-0.543-1.75c0,0.11-0.164,0.332-0.5,0.668c0-0.389-0.125-0.61-0.375-0.668
	s-0.567-0.029-0.957,0.082c-0.39,0.11-0.64,0.139-0.75,0.086c-0.558-0.168-0.971-0.375-1.25-0.625s-0.5-0.711-0.668-1.375
	c-0.164-0.668-0.274-1.086-0.332-1.25c-0.11-0.278-0.375-0.572-0.793-0.875c-0.414-0.308-0.678-0.601-0.789-0.875
	c-0.058-0.11-0.125-0.264-0.211-0.461c-0.082-0.192-0.164-0.375-0.25-0.539c-0.082-0.168-0.192-0.322-0.332-0.461
	C91.735,28.067,91.582,28,91.418,28c-0.168,0-0.36,0.14-0.586,0.418c-0.222,0.274-0.428,0.553-0.625,0.832
	c-0.192,0.279-0.317,0.418-0.375,0.418c-0.164-0.11-0.332-0.153-0.5-0.125c-0.164,0.024-0.289,0.053-0.375,0.082
	c-0.082,0.029-0.207,0.11-0.375,0.25c-0.164,0.14-0.303,0.235-0.414,0.293c-0.168,0.111-0.403,0.192-0.711,0.25
	c-0.303,0.053-0.539,0.111-0.707,0.164c0.832-0.274,0.808-0.582-0.082-0.914c-0.558-0.226-1-0.308-1.336-0.25
	c0.5-0.226,0.711-0.558,0.625-1c-0.082-0.447-0.317-0.836-0.707-1.168h0.418c-0.058-0.221-0.293-0.457-0.711-0.707
	c-0.414-0.25-0.899-0.485-1.457-0.711c-0.558-0.222-0.918-0.39-1.082-0.5c-0.447-0.274-1.389-0.539-2.836-0.789
	c-1.442-0.25-2.361-0.264-2.75-0.043c-0.274,0.332-0.399,0.625-0.375,0.875c0.028,0.25,0.139,0.64,0.336,1.168
	c0.192,0.524,0.289,0.875,0.289,1.039c0.058,0.336-0.097,0.697-0.457,1.086c-0.36,0.39-0.543,0.722-0.543,1
	c0,0.39,0.389,0.817,1.168,1.289c0.779,0.476,1.058,1.072,0.832,1.793c-0.164,0.442-0.611,0.89-1.332,1.332
	c-0.721,0.447-1.168,0.778-1.332,1c-0.278,0.447-0.322,0.961-0.125,1.543c0.192,0.582,0.486,1.043,0.875,1.375
	c0.111,0.11,0.149,0.221,0.125,0.332c-0.028,0.11-0.125,0.235-0.293,0.375c-0.168,0.139-0.317,0.25-0.457,0.336
	c-0.139,0.082-0.322,0.178-0.543,0.289L74.75,39.5c-0.61,0.279-1.183,0.11-1.707-0.5c-0.528-0.61-0.903-1.332-1.125-2.168
	c-0.389-1.39-0.836-2.222-1.336-2.5c-1.274-0.442-2.082-0.414-2.414,0.086c-0.278-0.726-1.418-1.447-3.418-2.168
	c-1.39-0.5-3-0.61-4.832-0.332c0.332-0.058,0.332-0.476,0-1.25c-0.389-0.836-0.918-1.168-1.586-1
	c0.168-0.336,0.278-0.822,0.336-1.461c0.053-0.64,0.082-1.015,0.082-1.125c0.168-0.722,0.5-1.361,1-1.914
	c0.058-0.058,0.25-0.293,0.582-0.711c0.336-0.414,0.601-0.789,0.793-1.125c0.192-0.332,0.207-0.5,0.043-0.5
	c1.942,0.226,3.332-0.082,4.164-0.914c0.278-0.278,0.601-0.75,0.961-1.418c0.361-0.668,0.649-1.14,0.875-1.418
	c0.5-0.332,0.89-0.486,1.164-0.457c0.278,0.029,0.683,0.183,1.211,0.457c0.524,0.278,0.928,0.418,1.207,0.418
	c0.779,0.058,1.207-0.25,1.293-0.918c0.082-0.664-0.125-1.222-0.625-1.664c0.664,0.053,0.75-0.418,0.25-1.418
	c-0.278-0.39-0.5-0.64-0.668-0.75c-0.668-0.221-1.418-0.082-2.25,0.418c-0.442,0.222-0.39,0.442,0.168,0.664
	c-0.058-0.053-0.322,0.235-0.793,0.875c-0.471,0.639-0.933,1.125-1.375,1.461c-0.442,0.332-0.89,0.192-1.332-0.418
	c-0.058-0.058-0.211-0.433-0.461-1.125s-0.515-1.067-0.789-1.125c-0.447,0-0.889,0.418-1.336,1.25c0.168-0.442-0.14-0.86-0.914-1.25
	c-0.778-0.39-1.447-0.61-2-0.668c1.053-0.664,0.832-1.414-0.668-2.25c-0.39-0.222-0.957-0.361-1.707-0.414
	c-0.75-0.058-1.293,0.053-1.625,0.332c-0.278,0.39-0.433,0.707-0.461,0.957c-0.024,0.25,0.11,0.476,0.418,0.668
	s0.596,0.346,0.875,0.457c0.279,0.11,0.596,0.226,0.957,0.336c0.36,0.111,0.601,0.192,0.711,0.25c0.774,0.553,1,0.942,0.664,1.164
	c-0.111,0.058-0.347,0.153-0.707,0.293S57.692,16.89,57.418,17c-0.278,0.11-0.447,0.221-0.5,0.332c-0.168,0.226-0.168,0.61,0,1.168
	c0.164,0.558,0.111,0.942-0.168,1.168c-0.279-0.278-0.529-0.764-0.75-1.461c-0.221-0.692-0.418-1.149-0.582-1.375
	c0.39,0.5-0.308,0.668-2.086,0.5L52.5,17.25c-0.221,0-0.668,0.058-1.332,0.168c-0.668,0.111-1.235,0.14-1.711,0.082
	c-0.472-0.058-0.847-0.279-1.125-0.668c-0.222-0.442-0.222-1,0-1.664C48.39,14.942,48.5,14.89,48.668,15
	c-0.226-0.168-0.528-0.433-0.918-0.793c-0.39-0.361-0.668-0.597-0.832-0.707c-2.558,0.832-5.168,1.971-7.836,3.418
	c0.336,0.053,0.668,0.024,1-0.086c0.278-0.111,0.639-0.289,1.086-0.539c0.442-0.25,0.722-0.403,0.832-0.461
	c1.89-0.774,3.058-0.972,3.5-0.582l0.418-0.418c0.774,0.889,1.332,1.586,1.664,2.086c-0.39-0.226-1.222-0.25-2.5-0.086
	c-1.111,0.336-1.722,0.668-1.832,1c0.39,0.668,0.529,1.168,0.418,1.5c-0.226-0.164-0.543-0.442-0.961-0.832
	c-0.414-0.39-0.817-0.692-1.207-0.918c-0.39-0.222-0.808-0.361-1.25-0.414c-0.89,0-1.5,0.024-1.832,0.082
	c-8.11,4.442-14.639,10.61-19.586,18.5c0.389,0.39,0.726,0.61,1,0.668c0.226,0.053,0.36,0.303,0.418,0.75
	c0.058,0.442,0.125,0.75,0.207,0.914c0.086,0.168,0.403,0.086,0.961-0.25c0.5,0.447,0.582,0.976,0.25,1.586
	c0.053-0.058,1.274,0.692,3.664,2.25c1.058,0.942,1.639,1.524,1.75,1.75c0.168,0.611-0.111,1.111-0.832,1.5
	c-0.058-0.11-0.308-0.36-0.75-0.75c-0.442-0.389-0.692-0.5-0.75-0.336c-0.168,0.278-0.154,0.793,0.043,1.543
	c0.192,0.75,0.486,1.096,0.875,1.043c-0.389,0-0.653,0.442-0.793,1.332s-0.207,1.875-0.207,2.957c0,1.086-0.028,1.735-0.086,1.961
	l0.168,0.082c-0.168,0.668-0.015,1.625,0.457,2.875c0.476,1.25,1.072,1.793,1.793,1.625c-0.721,0.168-0.168,1.36,1.668,3.582
	c0.332,0.447,0.553,0.697,0.664,0.75c0.168,0.11,0.5,0.322,1,0.625c0.5,0.308,0.918,0.586,1.25,0.836
	c0.336,0.25,0.61,0.539,0.836,0.875c0.222,0.274,0.5,0.899,0.832,1.875c0.332,0.972,0.721,1.625,1.168,1.957
	c-0.11,0.332,0.149,0.89,0.789,1.668c0.639,0.774,0.933,1.414,0.875,1.914c-0.053,0-0.125,0.028-0.207,0.086
	c-0.082,0.053-0.154,0.082-0.207,0.082c0.164,0.39,0.597,0.779,1.289,1.168c0.697,0.39,1.125,0.75,1.293,1.082
	c0.058,0.168,0.11,0.442,0.168,0.832c0.053,0.389,0.14,0.697,0.25,0.918c0.111,0.221,0.332,0.279,0.664,0.168
	c0.11-1.11-0.553-2.836-2-5.168c-0.832-1.39-1.303-2.192-1.414-2.418c-0.168-0.274-0.322-0.707-0.461-1.289
	c-0.14-0.586-0.265-0.985-0.375-1.211c0.11,0,0.278,0.043,0.5,0.125c0.226,0.086,0.461,0.183,0.711,0.293s0.457,0.221,0.625,0.332
	c0.164,0.11,0.222,0.197,0.164,0.25c-0.164,0.389-0.111,0.875,0.168,1.461c0.279,0.582,0.61,1.097,1,1.539
	c0.39,0.447,0.86,0.976,1.418,1.586c0.553,0.611,0.89,0.972,1,1.082c0.332,0.332,0.722,0.875,1.164,1.625
	c0.447,0.75,0.447,1.125,0,1.125c0.5,0,1.058,0.279,1.668,0.832c0.61,0.558,1.082,1.11,1.418,1.668
	c0.274,0.442,0.5,1.168,0.664,2.168c0.168,1,0.308,1.664,0.418,2c0.11,0.39,0.346,0.765,0.707,1.125
	c0.36,0.361,0.711,0.625,1.043,0.789l1.332,0.668c0,0,0.36,0.192,1.086,0.582c0.274,0.11,0.789,0.403,1.539,0.875
	c0.75,0.476,1.351,0.793,1.793,0.961C54.058,86.89,54.5,87,54.832,87c0.336,0,0.735-0.067,1.211-0.207
	c0.472-0.139,0.847-0.235,1.125-0.293c0.832-0.11,1.64,0.308,2.414,1.25c0.778,0.942,1.36,1.529,1.75,1.75
	c2,1.058,3.528,1.36,4.586,0.918c-0.11,0.053-0.101,0.265,0.039,0.625c0.139,0.361,0.36,0.789,0.668,1.289s0.558,0.903,0.75,1.211
	c0.192,0.303,0.346,0.539,0.457,0.707c0.278,0.332,0.778,0.75,1.5,1.25c0.726,0.5,1.226,0.918,1.5,1.25
	c0.336-0.221,0.528-0.471,0.586-0.75c-0.168,0.442,0.024,1,0.582,1.668c0.558,0.664,1.058,0.942,1.5,0.832
	c0.779-0.168,1.168-1.058,1.168-2.668c-1.726,0.836-3.086,0.336-4.086-1.5c0-0.053-0.067-0.207-0.207-0.457s-0.25-0.485-0.332-0.707
	c-0.086-0.226-0.153-0.461-0.211-0.711c-0.053-0.25-0.053-0.457,0-0.625c0.058-0.164,0.197-0.25,0.418-0.25
	c0.5,0,0.779-0.097,0.832-0.289c0.058-0.197,0-0.543-0.164-1.043c-0.168-0.5-0.278-0.86-0.336-1.082
	c-0.053-0.447-0.361-1-0.914-1.668c-0.558-0.668-0.889-1.082-1-1.25c-0.278,0.5-0.726,0.721-1.336,0.668
	c-0.611-0.058-1.053-0.308-1.332-0.75c0,0.053-0.043,0.207-0.125,0.457s-0.125,0.433-0.125,0.543c-0.721,0-1.14-0.028-1.25-0.086
	c0.058-0.164,0.125-0.649,0.207-1.457c0.086-0.808,0.183-1.433,0.293-1.875c0.058-0.221,0.207-0.558,0.457-1
	s0.461-0.846,0.625-1.207c0.168-0.36,0.278-0.711,0.336-1.043c0.053-0.332-0.072-0.596-0.375-0.793
	c-0.308-0.192-0.793-0.265-1.461-0.207c-1.053,0.058-1.774,0.61-2.164,1.668c-0.058,0.164-0.139,0.457-0.25,0.875
	c-0.11,0.414-0.25,0.736-0.418,0.957s-0.418,0.418-0.75,0.582c-0.39,0.168-1.058,0.226-2,0.168s-1.61-0.192-2-0.418
	c-0.721-0.442-1.346-1.25-1.875-2.414c-0.529-1.168-0.793-2.197-0.793-3.086c0-0.553,0.072-1.289,0.211-2.207
	c0.14-0.918,0.222-1.61,0.25-2.082c0.024-0.476-0.125-1.153-0.461-2.043c0.168-0.11,0.418-0.375,0.75-0.793
	c0.336-0.414,0.61-0.707,0.836-0.875c0.111-0.053,0.236-0.097,0.375-0.125c0.14-0.024,0.265-0.024,0.375,0
	c0.111,0.028,0.222-0.015,0.332-0.125c0.11-0.111,0.192-0.274,0.25-0.5c-0.058-0.053-0.168-0.14-0.332-0.25
	c-0.168-0.164-0.278-0.25-0.336-0.25c0.389,0.168,1.183,0.125,2.375-0.125c1.197-0.25,1.961-0.207,2.293,0.125
	c0.832,0.61,1.442,0.558,1.832-0.164c0-0.058-0.067-0.322-0.207-0.793s-0.154-0.846-0.043-1.125c0.278,1.5,1.086,1.75,2.418,0.75
	c0.168,0.168,0.596,0.308,1.293,0.418c0.692,0.111,1.178,0.25,1.457,0.414c0.168,0.11,0.36,0.264,0.582,0.461
	c0.226,0.192,0.375,0.317,0.461,0.375c0.082,0.053,0.222,0.039,0.414-0.043c0.197-0.082,0.433-0.265,0.711-0.543
	c0.553,0.778,0.89,1.447,1,2c0.611,2.226,1.14,3.447,1.582,3.668c0.39,0.168,0.692,0.221,0.918,0.168
	c0.222-0.058,0.347-0.322,0.375-0.793c0.024-0.471,0.024-0.86,0-1.168c-0.028-0.303-0.072-0.649-0.125-1.039L73.832,70.5V69
	l-0.082-0.668c-0.832-0.164-1.346-0.5-1.543-1c-0.192-0.5-0.149-1.015,0.125-1.539c0.278-0.528,0.697-1.043,1.25-1.543
	c0.058-0.058,0.278-0.154,0.668-0.293c0.39-0.14,0.817-0.317,1.293-0.539c0.472-0.226,0.817-0.447,1.039-0.668
	c1.168-1.058,1.586-2.029,1.25-2.918c0.389,0,0.697-0.25,0.918-0.75c-0.058,0-0.192-0.082-0.418-0.25
	c-0.222-0.164-0.428-0.303-0.625-0.414c-0.192-0.11-0.317-0.168-0.375-0.168c0.5-0.279,0.558-0.721,0.168-1.332
	c0.279-0.168,0.485-0.476,0.625-0.918s0.346-0.721,0.625-0.832c0.5,0.664,1.082,0.722,1.75,0.164c0.39-0.442,0.418-0.89,0.082-1.332
	c0.278-0.39,0.851-0.683,1.711-0.875c0.861-0.192,1.375-0.457,1.539-0.793c0.389,0.11,0.61,0.058,0.668-0.164
	c0.058-0.226,0.082-0.558,0.082-1c0-0.447,0.086-0.778,0.25-1c0.226-0.278,0.639-0.528,1.25-0.75c0.61-0.226,0.976-0.36,1.086-0.418
	l1.414-0.918c0.168-0.222,0.168-0.332,0-0.332c1,0.11,1.86-0.192,2.586-0.918c0.553-0.611,0.39-1.164-0.5-1.664
	c0.164-0.336,0.082-0.601-0.25-0.793c-0.336-0.192-0.75-0.346-1.25-0.457c0.164-0.058,0.486-0.072,0.957-0.043S90.89,43.86,91,43.75
	c0.832-0.558,0.64-1-0.582-1.332C89.471,42.14,88.279,42.471,86.832,43.418z M73.25,116.5c11.442-2,21.192-7.25,29.25-15.75
	c-0.168-0.168-0.515-0.293-1.043-0.375c-0.524-0.082-0.875-0.183-1.039-0.293c-1-0.39-1.668-0.611-2-0.664
	c0.053-0.389-0.014-0.75-0.211-1.086c-0.192-0.332-0.414-0.582-0.664-0.75c-0.25-0.164-0.601-0.39-1.043-0.664
	c-0.442-0.278-0.75-0.476-0.918-0.586c-0.111-0.111-0.303-0.274-0.582-0.5c-0.279-0.222-0.471-0.375-0.582-0.457
	c-0.11-0.082-0.322-0.207-0.625-0.375c-0.308-0.168-0.543-0.221-0.711-0.168c-0.164,0.058-0.442,0.086-0.832,0.086L92,95
	c-0.168,0.058-0.317,0.125-0.457,0.207c-0.139,0.086-0.293,0.168-0.461,0.25c-0.164,0.086-0.274,0.168-0.332,0.25
	c-0.058,0.086-0.058,0.153,0,0.211c-1.168-0.947-2.168-1.558-3-1.836c-0.279-0.053-0.582-0.207-0.918-0.457
	c-0.332-0.25-0.625-0.442-0.875-0.582c-0.25-0.139-0.524-0.183-0.832-0.125c-0.308,0.053-0.625,0.25-0.957,0.582
	c-0.278,0.279-0.447,0.692-0.5,1.25c-0.058,0.558-0.11,0.918-0.168,1.082c-0.39-0.274-0.39-0.765,0-1.457s0.442-1.207,0.168-1.543
	c-0.168-0.332-0.461-0.457-0.875-0.375c-0.418,0.086-0.75,0.211-1,0.375c-0.25,0.168-0.572,0.403-0.961,0.711
	c-0.39,0.303-0.64,0.486-0.75,0.539c-0.111,0.058-0.347,0.211-0.707,0.461S78.779,95,78.668,95.168c-0.168,0.222-0.336,0.553-0.5,1
	C78,96.61,77.86,96.918,77.75,97.082c-0.11-0.222-0.433-0.399-0.957-0.539C76.265,96.404,76,96.25,76,96.082
	c0.11,0.558,0.221,1.528,0.332,2.918c0.11,1.39,0.25,2.442,0.418,3.168c0.39,1.722,0.058,3.053-1,4c-1.5,1.39-2.308,2.5-2.418,3.332
	c-0.222,1.221,0.11,1.942,1,2.168c0,0.39-0.222,0.957-0.664,1.707c-0.447,0.75-0.639,1.346-0.586,1.793
	C73.082,115.5,73.14,115.942,73.25,116.5z"/>
</svg>
